<svg id="_0090_code_development" data-name="0090_code_development" xmlns="http://www.w3.org/2000/svg" viewBox="0 0 500 500" data-imageid="coding-58" imageName="Coding" class="illustrations_image" style="width: 158px;"><defs><style>.cls-1_coding-58{fill:#093f68;}.cls-2_coding-58{fill:#68e1fd;}.cls-3_coding-58{fill:#fff;}.cls-4_coding-58{fill:#ffbc0e;}.cls-5_coding-58{fill:#70cc40;}.cls-6_coding-58{fill:#f56132;}</style></defs><g id="lines_coding-58"><path class="cls-1_coding-58" d="M393.37,364.33h-55a1.69,1.69,0,0,1,0-3.38h53.27V335.33a1.69,1.69,0,1,1,3.37,0v27.31A1.69,1.69,0,0,1,393.37,364.33Z"/><path class="cls-1_coding-58" d="M327.1,364.33H179.52a1.69,1.69,0,0,1,0-3.38H327.1a1.69,1.69,0,0,1,0,3.38Z"/><path class="cls-1_coding-58" d="M170.45,364.33H94a1.69,1.69,0,0,1-1.69-1.69V337.8a1.69,1.69,0,1,1,3.37,0V361h74.74a1.69,1.69,0,0,1,0,3.38Z"/><path class="cls-1_coding-58" d="M157.49,373.29a1.68,1.68,0,0,1-1-3.07l10.72-7.42-10.58-5.87a1.69,1.69,0,1,1,1.64-2.95l13,7.18a1.72,1.72,0,0,1,.86,1.4,1.68,1.68,0,0,1-.72,1.47l-13,9A1.65,1.65,0,0,1,157.49,373.29Z"/><path class="cls-1_coding-58" d="M314.14,373.29a1.67,1.67,0,0,1-1.38-.72,1.69,1.69,0,0,1,.42-2.35l10.73-7.42-10.59-5.87A1.69,1.69,0,0,1,315,354l13,7.18a1.71,1.71,0,0,1,.87,1.4,1.69,1.69,0,0,1-.73,1.47l-13,9A1.61,1.61,0,0,1,314.14,373.29Z"/></g><g id="device_coding-58"><rect class="cls-2_coding-58 targetColor" x="335.95" y="129.64" width="114.84" height="205.99" rx="16.5" style="fill: rgb(0, 0, 0);"/><path class="cls-1_coding-58" d="M433.81,337.32H352.92a18.68,18.68,0,0,1-18.66-18.66v-172A18.68,18.68,0,0,1,352.92,128h80.89a18.68,18.68,0,0,1,18.66,18.66v172A18.68,18.68,0,0,1,433.81,337.32Zm-80.89-206a15.3,15.3,0,0,0-15.28,15.29v172a15.29,15.29,0,0,0,15.28,15.28h80.89a15.3,15.3,0,0,0,15.29-15.28v-172a15.31,15.31,0,0,0-15.29-15.29Z"/><rect class="cls-3_coding-58" x="335.95" y="149.73" width="114.84" height="154.71"/><path class="cls-1_coding-58" d="M450.79,306.13H336a1.69,1.69,0,0,1-1.69-1.69V149.73A1.69,1.69,0,0,1,336,148H450.79a1.68,1.68,0,0,1,1.68,1.69V304.44A1.69,1.69,0,0,1,450.79,306.13Zm-113.15-3.38H449.1V151.41H337.64Z"/><path class="cls-1_coding-58" d="M393.37,329a9.41,9.41,0,1,1,9.41-9.41A9.43,9.43,0,0,1,393.37,329Zm0-15.45a6,6,0,1,0,6,6A6,6,0,0,0,393.37,313.51Z"/><path class="cls-1_coding-58" d="M402.88,141H378.65a1.69,1.69,0,0,1,0-3.38h24.23a1.69,1.69,0,0,1,0,3.38Z"/><path class="cls-1_coding-58" d="M418.15,141H411.3a1.69,1.69,0,0,1,0-3.38h6.85a1.69,1.69,0,0,1,0,3.38Z"/><rect class="cls-4_coding-58" x="349.27" y="172.52" width="89.82" height="43.83"/><path class="cls-1_coding-58" d="M439.09,218.05H349.27a1.69,1.69,0,0,1-1.69-1.69V172.53a1.68,1.68,0,0,1,1.69-1.69h89.82a1.69,1.69,0,0,1,1.69,1.69v43.83A1.69,1.69,0,0,1,439.09,218.05ZM351,214.67H437.4V174.21H351Z"/><rect class="cls-5_coding-58" x="349.27" y="227.34" width="89.82" height="43.83"/><path class="cls-1_coding-58" d="M439.09,272.86H349.27a1.68,1.68,0,0,1-1.69-1.69V227.34a1.69,1.69,0,0,1,1.69-1.69h89.82a1.69,1.69,0,0,1,1.69,1.69v43.83A1.69,1.69,0,0,1,439.09,272.86ZM351,269.49H437.4V229H351Z"/><rect class="cls-6_coding-58" x="349.27" y="282.16" width="89.82" height="21.92"/><path class="cls-1_coding-58" d="M439.09,305.76H349.27a1.68,1.68,0,0,1-1.69-1.69V282.16a1.68,1.68,0,0,1,1.69-1.69h89.82a1.69,1.69,0,0,1,1.69,1.69v21.91A1.69,1.69,0,0,1,439.09,305.76ZM351,302.39H437.4V283.84H351Z"/><path class="cls-1_coding-58" d="M369.34,163H346.51a1.69,1.69,0,0,1,0-3.37h22.83a1.69,1.69,0,1,1,0,3.37Z"/><path class="cls-1_coding-58" d="M436.89,163H425.58a1.69,1.69,0,0,1,0-3.37h11.31a1.69,1.69,0,1,1,0,3.37Z"/></g><g id="tab_coding-58"><path class="cls-2_coding-58 targetColor" d="M288.45,133.57V330.24a5.39,5.39,0,0,1-5.39,5.39H54.6a5.39,5.39,0,0,1-5.39-5.39V133.57a5.39,5.39,0,0,1,5.39-5.4H283.06A5.39,5.39,0,0,1,288.45,133.57Z" style="fill: rgb(0, 0, 0);"/><path class="cls-1_coding-58" d="M283.06,337.32H54.6a7.08,7.08,0,0,1-7.07-7.08V133.57a7.09,7.09,0,0,1,7.07-7.09H283.06a7.09,7.09,0,0,1,7.07,7.09V330.24A7.08,7.08,0,0,1,283.06,337.32ZM54.6,129.86a3.71,3.71,0,0,0-3.7,3.71V330.24a3.7,3.7,0,0,0,3.7,3.7H283.06a3.7,3.7,0,0,0,3.7-3.7V133.57a3.71,3.71,0,0,0-3.7-3.71Z"/><path class="cls-3_coding-58" d="M288.45,133.57V330.24a5.39,5.39,0,0,1-5.39,5.39h-152V128.17h152A5.39,5.39,0,0,1,288.45,133.57Z"/><path class="cls-1_coding-58" d="M283.06,337.32h-152a1.69,1.69,0,0,1-1.69-1.69V128.17a1.69,1.69,0,0,1,1.69-1.69h152a7.09,7.09,0,0,1,7.07,7.09V330.24A7.08,7.08,0,0,1,283.06,337.32Zm-150.28-3.38H283.06a3.7,3.7,0,0,0,3.7-3.7V133.57a3.71,3.71,0,0,0-3.7-3.71H132.78Z"/><path class="cls-3_coding-58" d="M288.45,133.57v22.15H49.21V133.57a5.39,5.39,0,0,1,5.39-5.4H283.06A5.39,5.39,0,0,1,288.45,133.57Z"/><path class="cls-1_coding-58" d="M288.45,157.41H49.21a1.69,1.69,0,0,1-1.68-1.69V133.57a7.09,7.09,0,0,1,7.07-7.09H283.06a7.09,7.09,0,0,1,7.07,7.09v22.15A1.69,1.69,0,0,1,288.45,157.41ZM50.9,154H286.76V133.57a3.71,3.71,0,0,0-3.7-3.71H54.6a3.71,3.71,0,0,0-3.7,3.71Z"/><circle class="cls-6_coding-58" cx="67.67" cy="141.18" r="4.99"/><path class="cls-1_coding-58" d="M67.67,147.86a6.68,6.68,0,1,1,6.68-6.68A6.68,6.68,0,0,1,67.67,147.86Zm0-10a3.3,3.3,0,1,0,3.3,3.29A3.3,3.3,0,0,0,67.67,137.89Z"/><circle class="cls-4_coding-58" cx="87.81" cy="141.18" r="4.99"/><path class="cls-1_coding-58" d="M87.81,147.86a6.68,6.68,0,1,1,6.68-6.68A6.68,6.68,0,0,1,87.81,147.86Zm0-10a3.3,3.3,0,1,0,3.3,3.29A3.3,3.3,0,0,0,87.81,137.89Z"/><circle class="cls-5_coding-58" cx="107.95" cy="141.18" r="4.99"/><path class="cls-1_coding-58" d="M108,147.86a6.68,6.68,0,1,1,6.67-6.68A6.68,6.68,0,0,1,108,147.86Zm0-10a3.3,3.3,0,1,0,3.3,3.29A3.3,3.3,0,0,0,108,137.89Z"/><path class="cls-1_coding-58" d="M171.61,174.68h-24.8a1.69,1.69,0,0,1,0-3.38h24.8a1.69,1.69,0,0,1,0,3.38Z"/><path class="cls-4_coding-58" d="M205.85,193H155a1.69,1.69,0,1,1,0-3.38h50.89a1.69,1.69,0,0,1,0,3.38Z"/><path class="cls-4_coding-58" d="M193.21,211.29H155a1.69,1.69,0,1,1,0-3.37h38.25a1.69,1.69,0,1,1,0,3.37Z"/><path class="cls-1_coding-58" d="M173,229.6h-22a1.69,1.69,0,0,1,0-3.37h22a1.69,1.69,0,1,1,0,3.37Z"/><path class="cls-6_coding-58" d="M181.76,247.91H157a1.69,1.69,0,1,1,0-3.37h24.79a1.69,1.69,0,1,1,0,3.37Z"/><path class="cls-1_coding-58" d="M194.39,266.22H156.11a1.69,1.69,0,1,1,0-3.38h38.28a1.69,1.69,0,1,1,0,3.38Z"/><path class="cls-1_coding-58" d="M165.41,284.53h-18.6a1.69,1.69,0,0,1,0-3.38h18.6a1.69,1.69,0,1,1,0,3.38Z"/><path class="cls-5_coding-58" d="M194.39,302.83H153.66a1.69,1.69,0,1,1,0-3.37h40.73a1.69,1.69,0,1,1,0,3.37Z"/><path class="cls-4_coding-58" d="M233.41,302.83H206.67a1.69,1.69,0,1,1,0-3.37h26.74a1.69,1.69,0,1,1,0,3.37Z"/><path class="cls-1_coding-58" d="M224.74,211.29H205.85a1.69,1.69,0,1,1,0-3.37h18.89a1.69,1.69,0,0,1,0,3.37Z"/><path class="cls-2_coding-58 targetColor" d="M251.65,193H215.29a1.69,1.69,0,0,1,0-3.38h36.36a1.69,1.69,0,1,1,0,3.38Z" style="fill: rgb(0, 0, 0);"/><path class="cls-6_coding-58" d="M245.63,211.29H235a1.69,1.69,0,1,1,0-3.37h10.62a1.69,1.69,0,1,1,0,3.37Z"/><path class="cls-6_coding-58" d="M199.71,247.91H189.08a1.69,1.69,0,1,1,0-3.37h10.63a1.69,1.69,0,0,1,0,3.37Z"/><path class="cls-4_coding-58" d="M251.65,247.91H208.44a1.69,1.69,0,0,1,0-3.37h43.21a1.69,1.69,0,1,1,0,3.37Z"/><path class="cls-2_coding-58 targetColor" d="M215.29,266.22h-9.44a1.69,1.69,0,0,1,0-3.38h9.44a1.69,1.69,0,1,1,0,3.38Z" style="fill: rgb(0, 0, 0);"/><path class="cls-1_coding-58" d="M251.65,302.83h-6a1.69,1.69,0,0,1,0-3.37h6a1.69,1.69,0,1,1,0,3.37Z"/><rect class="cls-3_coding-58" x="60.32" y="282.84" width="61.21" height="10.21" rx="2.06"/><path class="cls-1_coding-58" d="M118,294.73H63.8a5.18,5.18,0,0,1-5.17-5.17v-3.24a5.18,5.18,0,0,1,5.17-5.17H118a5.18,5.18,0,0,1,5.17,5.17v3.24A5.18,5.18,0,0,1,118,294.73ZM63.8,284.53a1.8,1.8,0,0,0-1.8,1.79v3.24a1.81,1.81,0,0,0,1.8,1.8H118a1.81,1.81,0,0,0,1.8-1.8v-3.24a1.8,1.8,0,0,0-1.8-1.79Z"/><path class="cls-4_coding-58" d="M61.92,282.84H97.13a0,0,0,0,1,0,0V293a0,0,0,0,1,0,0H61.92a1.6,1.6,0,0,1-1.6-1.6v-7A1.6,1.6,0,0,1,61.92,282.84Z"/><path class="cls-1_coding-58" d="M97.14,294.73H63a4.39,4.39,0,0,1-4.38-4.39v-4.8A4.39,4.39,0,0,1,63,281.15H97.14a1.69,1.69,0,0,1,1.68,1.69V293A1.68,1.68,0,0,1,97.14,294.73ZM63,284.53a1,1,0,0,0-1,1v4.8a1,1,0,0,0,1,1H95.45v-6.83Z"/><path class="cls-3_coding-58" d="M122.64,227.1a3.74,3.74,0,0,0-2.9-3.5c-1.4-.3-2.82-.53-4.23-.75a.93.93,0,0,1-.84-.69c-.42-1.13-.89-2.24-1.38-3.34a.72.72,0,0,1,.07-.85c.86-1.17,1.72-2.34,2.51-3.55a3.73,3.73,0,0,0-.33-4.54c-1.29-1.42-2.68-2.75-4-4.12a4,4,0,0,0-5.41-.49c-1.06.74-2.12,1.49-3.16,2.25a.74.74,0,0,1-.85.09q-1.78-.8-3.63-1.5a.72.72,0,0,1-.54-.65c-.2-1.3-.42-2.59-.65-3.88a3.91,3.91,0,0,0-3.74-3.36c-2,0-4,0-6,0a3.78,3.78,0,0,0-3.62,3c-.33,1.45-.54,2.92-.79,4.39a.76.76,0,0,1-.54.66c-1.17.46-2.33,1-3.47,1.47a.69.69,0,0,1-.8-.07c-1.15-.85-2.31-1.71-3.5-2.5a3.74,3.74,0,0,0-4.58.3c-1.52,1.39-3,2.84-4.4,4.35a3.82,3.82,0,0,0-.25,5.09c.77,1.12,1.58,2.22,2.35,3.35a.75.75,0,0,1,.07.59c-.48,1.26-1,2.5-1.51,3.74a.76.76,0,0,1-.48.38c-1.28.24-2.58.45-3.87.66a3.91,3.91,0,0,0-3.47,3.64c-.07,2.08-.06,4.16,0,6.24a3.73,3.73,0,0,0,2.87,3.47c1.48.34,3,.56,4.49.82a.7.7,0,0,1,.62.51c.47,1.18,1,2.36,1.49,3.52a.65.65,0,0,1-.07.75c-.79,1.07-1.57,2.15-2.32,3.24a3.92,3.92,0,0,0,.45,5.25Q68.08,253,70,254.82a3.94,3.94,0,0,0,5.38.41c1.09-.77,2.18-1.53,3.25-2.32a.62.62,0,0,1,.71,0c1.1.47,2.21.95,3.34,1.37a.84.84,0,0,1,.61.78c.2,1.28.41,2.55.64,3.83a3.86,3.86,0,0,0,3.57,3.35c2.1.07,4.2.06,6.29,0a3.76,3.76,0,0,0,3.49-2.93c.31-1.41.52-2.85.76-4.28a.82.82,0,0,1,.59-.74c1.17-.45,2.33-.94,3.48-1.45a.66.66,0,0,1,.76.08c1.07.79,2.16,1.55,3.24,2.32a4.08,4.08,0,0,0,2.61.79A3.39,3.39,0,0,0,111,255c1.37-1.3,2.69-2.64,4-4a4,4,0,0,0,.49-5.5c-.74-1.06-1.49-2.11-2.25-3.16a.65.65,0,0,1-.08-.75c.52-1.17,1-2.35,1.47-3.53a.75.75,0,0,1,.67-.54c1.29-.2,2.59-.41,3.88-.63a3.91,3.91,0,0,0,3.39-3.71C122.69,231.19,122.69,229.15,122.64,227.1ZM90.63,244a13.81,13.81,0,1,1,13.84-13.79A13.81,13.81,0,0,1,90.63,244Z"/><path class="cls-1_coding-58" d="M90.74,245.51h-.12a15.34,15.34,0,0,1-10.92-4.63,15,15,0,0,1-4.34-10.73A15.4,15.4,0,0,1,90.65,214.9h0a15.31,15.31,0,0,1,.07,30.61Zm-.1-3h.1A12.08,12.08,0,0,0,99.27,239a12.34,12.34,0,0,0,3.7-8.77,12.14,12.14,0,0,0-3.57-8.67,12.27,12.27,0,0,0-8.74-3.65h0a12.24,12.24,0,0,0-12.29,12.28,12,12,0,0,0,3.48,8.6,12.38,12.38,0,0,0,8.8,3.73Z"/><path class="cls-1_coding-58" d="M90.59,263.74c-1.08,0-2.13,0-3.15-.05a5.37,5.37,0,0,1-5-4.59c-.21-1.19-.41-2.38-.6-3.58-1-.36-1.87-.75-2.72-1.12-1,.69-1.92,1.38-2.89,2a5.39,5.39,0,0,1-7.28-.56c-1.24-1.2-2.49-2.45-3.81-3.81a5.41,5.41,0,0,1-.62-7.15c.7-1,1.43-2,2.09-2.92-.47-1-.85-2-1.2-2.84l-.63-.1c-1.16-.2-2.37-.4-3.56-.66a5.24,5.24,0,0,1-4-4.89c-.07-2.24-.07-4.32,0-6.34a5.39,5.39,0,0,1,4.73-5.07c1.13-.18,2.26-.36,3.38-.57.4-.93.78-1.89,1.16-2.85-.34-.49-.69-1-1-1.45l-1.07-1.51a5.35,5.35,0,0,1,.39-7c1.35-1.46,2.82-2.91,4.49-4.44a5.21,5.21,0,0,1,6.41-.44c1.11.73,2.18,1.52,3.22,2.29,1-.46,2-.86,2.85-1.21l.08-.47c.19-1.19.39-2.42.66-3.63a5.3,5.3,0,0,1,5.06-4.14c2,0,4.08,0,6,0a5.42,5.42,0,0,1,5.19,4.6c.21,1.17.4,2.35.59,3.52,1,.39,2,.81,3,1.25,1-.7,1.92-1.38,2.89-2.05a5.46,5.46,0,0,1,7.33.67l1,1c1,1,2.06,2.06,3.05,3.15a5.23,5.23,0,0,1,.48,6.35c-.7,1.09-1.47,2.14-2.21,3.16l-.12.15c.48,1.09.86,2,1.19,2.87,1.44.22,2.74.44,4.07.72a5.24,5.24,0,0,1,4.08,4.93h0c0,2.2,0,4.23,0,6.22a5.42,5.42,0,0,1-4.64,5.15c-1.18.2-2.36.4-3.54.58-.36.91-.75,1.85-1.19,2.86.69.94,1.36,1.88,2,2.84a5.46,5.46,0,0,1-.66,7.42l-.74.73c-1.1,1.1-2.2,2.2-3.32,3.27a4.9,4.9,0,0,1-3.32,1.35,5.55,5.55,0,0,1-3.53-1.07l-1.31-.94-1.59-1.13c-1.06.46-2,.84-2.86,1.18l-.07.43c-.19,1.19-.39,2.41-.66,3.63a5.25,5.25,0,0,1-4.9,4.11C92.71,263.72,91.63,263.74,90.59,263.74ZM79,251.27a2.32,2.32,0,0,1,.94.21c1,.43,2.14.92,3.27,1.34a2.33,2.33,0,0,1,1.58,2c.19,1.27.4,2.53.62,3.79a2.37,2.37,0,0,0,2.15,2.12c2,.07,4,.07,6.2,0a2.24,2.24,0,0,0,2.06-1.75c.25-1.13.44-2.32.63-3.47l.12-.73a2.3,2.3,0,0,1,1.54-1.91c1-.39,2.11-.84,3.41-1.41a2.18,2.18,0,0,1,2.25.24c.63.46,1.26.92,1.9,1.37L107,254a2.57,2.57,0,0,0,1.71.5A1.9,1.9,0,0,0,110,254c1.1-1,2.18-2.13,3.26-3.21L114,250a2.5,2.5,0,0,0,.32-3.58c-.73-1-1.48-2.1-2.23-3.14a2.16,2.16,0,0,1-.24-2.24c.54-1.23,1-2.37,1.44-3.46a2.23,2.23,0,0,1,1.84-1.48c1.29-.2,2.57-.41,3.85-.63a2.42,2.42,0,0,0,2.15-2.27c0-1.93,0-3.92,0-6.06a2.25,2.25,0,0,0-1.72-2.07c-1.32-.29-2.66-.51-4.14-.73a2.45,2.45,0,0,1-2-1.66c-.35-1-.78-2-1.34-3.25a2.22,2.22,0,0,1,.23-2.35l.34-.46c.72-1,1.46-2,2.12-3a2.21,2.21,0,0,0-.18-2.71c-.94-1-2-2-3-3l-1-1a2.47,2.47,0,0,0-3.49-.32c-1.06.73-2.1,1.47-3.13,2.23a2.21,2.21,0,0,1-2.34.25c-1.19-.52-2.39-1-3.56-1.46a2.23,2.23,0,0,1-1.5-1.83c-.19-1.29-.41-2.57-.63-3.85a2.43,2.43,0,0,0-2.31-2.12c-1.91,0-3.9,0-5.91,0a2.3,2.3,0,0,0-2.19,1.79c-.25,1.13-.44,2.32-.63,3.46l-.14.84a2.23,2.23,0,0,1-1.48,1.81c-1,.41-2.15.89-3.4,1.44a2.15,2.15,0,0,1-2.3-.22l-.15-.11c-1.07-.79-2.18-1.61-3.29-2.35a2.23,2.23,0,0,0-2.74.15c-1.6,1.47-3,2.87-4.31,4.27a2.35,2.35,0,0,0-.12,3.22l1,1.47c.45.63.89,1.25,1.32,1.88a2.24,2.24,0,0,1,.23,2c-.49,1.28-1,2.55-1.53,3.79a2.25,2.25,0,0,1-1.59,1.27c-1.29.24-2.6.45-3.91.66a2.43,2.43,0,0,0-2.2,2.21c-.07,2-.07,4,0,6.15a2.23,2.23,0,0,0,1.7,2c1.11.25,2.27.44,3.4.63l1,.17a2.21,2.21,0,0,1,1.77,1.44c.41,1.05.87,2.15,1.46,3.46a2.13,2.13,0,0,1-.23,2.25c-.71,1-1.53,2.08-2.29,3.2a2.44,2.44,0,0,0,.28,3.36c1.31,1.34,2.54,2.57,3.76,3.75a2.44,2.44,0,0,0,3.47.26c1.08-.76,2.16-1.52,3.22-2.3A2.06,2.06,0,0,1,79,251.27Zm35.54-9.75ZM65.75,221.46h0Zm1-2.4h0Zm-.1-.79h0Z"/></g></svg>