<svg id="_0230_designer" data-name="0230_designer" xmlns="http://www.w3.org/2000/svg" viewBox="0 0 500 500" data-imageid="designer-98" imageName="Designer" class="illustrations_image" style="width: 158px;"><defs><style>.cls-1_designer-98{fill:#d1d3d4;}.cls-2_designer-98{fill:#231f20;}.cls-3_designer-98{fill:#fff;}.cls-4_designer-98{fill:#68e1fd;}</style></defs><g id="Floor_designer-98"><path class="cls-1_designer-98" d="M430.08,379H69.92a.7.7,0,0,1,0-1.4H430.08a.7.7,0,0,1,0,1.4Z"/></g><g id="Drawing_Pen_designer-98" data-name="Drawing Pen"><polygon class="cls-2_designer-98" points="334.49 216.16 350.4 248.12 307.36 248.12 334.49 216.16"/><path class="cls-2_designer-98" d="M350.4,248.82h-43a.7.7,0,0,1-.64-.41.73.73,0,0,1,.1-.75L334,215.71a.66.66,0,0,1,.62-.24.69.69,0,0,1,.54.38l15.91,32a.71.71,0,0,1,0,.69A.71.71,0,0,1,350.4,248.82Zm-41.53-1.4h40.4l-14.93-30Z"/><polygon class="cls-2_designer-98" points="212.23 248.12 314.72 248.12 351.9 193.63 255.15 193.63 212.23 248.12"/><path class="cls-2_designer-98" d="M314.72,248.82H212.23a.71.71,0,0,1-.55-1.14L254.6,193.2a.72.72,0,0,1,.55-.27H351.9a.7.7,0,0,1,.62.37.71.71,0,0,1,0,.73L315.3,248.51A.71.71,0,0,1,314.72,248.82Zm-101.05-1.4H314.35l36.23-53.09H255.49Z"/><polygon class="cls-3_designer-98" points="258.23 198.91 227.6 238.61 303.66 238.61 332.44 198.91 258.23 198.91"/><path class="cls-2_designer-98" d="M303.66,239.31H227.6a.7.7,0,0,1-.63-.39.71.71,0,0,1,.07-.74l30.64-39.69a.7.7,0,0,1,.55-.27h74.22a.7.7,0,0,1,.56,1.11L304.22,239A.7.7,0,0,1,303.66,239.31ZM229,237.91H303.3l27.77-38.29H258.58Z"/><path class="cls-1_designer-98" d="M280,231.39a.71.71,0,0,1-.66-.48c-3.68-10.86-8.81-22.75-10.67-23h-.06c-2.23,0-16.52,11.79-29.2,23.33a.7.7,0,1,1-1-1c4.39-4,26.24-23.69,30.27-23.69h.15c3.58.55,9.93,18.49,11.79,24a.71.71,0,0,1-.44.89A.93.93,0,0,1,280,231.39Z"/><path class="cls-1_designer-98" d="M302.87,232.84a.7.7,0,0,1-.68-.51c-2.46-8.75-6-18.1-7.62-18.58s-9.33,6.43-15.57,13.09a.7.7,0,0,1-1-1c3.18-3.4,13.82-14.42,17-13.48s7.7,16.44,8.57,19.54a.7.7,0,0,1-.48.86Z"/><path class="cls-1_designer-98" d="M325.36,220.63c-1.73,0-3.08-.82-3.08-1.87s1.35-1.87,3.08-1.87,3.08.82,3.08,1.87S327.09,220.63,325.36,220.63Zm0-3.39c-1.48,0-2.73.7-2.73,1.52s1.25,1.52,2.73,1.52,2.73-.69,2.73-1.52S326.84,217.24,325.36,217.24Z"/><path class="cls-1_designer-98" d="M337.59,204.72h-6.2a.18.18,0,0,1-.18-.18.17.17,0,0,1,.18-.17h6.2a.17.17,0,0,1,.18.17A.18.18,0,0,1,337.59,204.72Z"/><path class="cls-3_designer-98" d="M314.72,248.82a.68.68,0,0,1-.41-.14.69.69,0,0,1-.16-1l19.78-27.24a.7.7,0,0,1,1.13.83l-19.78,27.24A.68.68,0,0,1,314.72,248.82Z"/><path class="cls-1_designer-98" d="M280,209A3.08,3.08,0,1,1,283.1,206,3.09,3.09,0,0,1,280,209Zm0-4.76A1.68,1.68,0,1,0,281.7,206,1.68,1.68,0,0,0,280,204.27Z"/></g><g id="Desk_designer-98"><rect class="cls-3_designer-98" x="319.52" y="256.18" width="80.41" height="138.03"/><path class="cls-2_designer-98" d="M399.93,394.92H319.52a.7.7,0,0,1-.7-.7v-138a.7.7,0,0,1,.7-.7h80.41a.7.7,0,0,1,.7.7v138A.7.7,0,0,1,399.93,394.92Zm-79.71-1.4h79V256.88h-79Z"/><rect class="cls-3_designer-98" x="98.01" y="256.18" width="80.41" height="138.03"/><path class="cls-2_designer-98" d="M178.42,394.92H98a.71.71,0,0,1-.7-.7v-138a.7.7,0,0,1,.7-.7h80.41a.7.7,0,0,1,.7.7v138A.7.7,0,0,1,178.42,394.92Zm-79.71-1.4h79V256.88h-79Z"/><rect class="cls-3_designer-98" x="87.34" y="249.31" width="316.01" height="13.4"/><path class="cls-2_designer-98" d="M403.35,263.41h-316a.7.7,0,0,1-.7-.7v-13.4a.7.7,0,0,1,.7-.7h316a.7.7,0,0,1,.7.7v13.4A.7.7,0,0,1,403.35,263.41ZM88,262H402.65V250H88Z"/></g><g id="Plants_designer-98"><path class="cls-2_designer-98" d="M372.85,378.82l-1.39-.15c0-.41,4.41-40.95-9.62-58.94l1.1-.86c6.05,7.76,9.56,20.22,10.42,37A158.71,158.71,0,0,1,372.85,378.82Z"/><path class="cls-2_designer-98" d="M368,384a4.46,4.46,0,0,1,.15-1.41c3.34-21.21-2.33-31.11-7.68-35.67l.91-1.06c5.62,4.79,11.59,15.09,8.15,36.95a10.05,10.05,0,0,0-.15,1Z"/><path class="cls-2_designer-98" d="M360.75,337.9a8,8,0,0,0-3.72-1.09c-2.34-.19-4.88.19-6.59,1.8-.47.45-.87,1.2-.45,1.7a1.71,1.71,0,0,0,.89.41,5.6,5.6,0,0,1,3.86,3.85c-1-.72-1.8-1.61-2.76-2.33a4.69,4.69,0,0,0-3.35-1.09,5.76,5.76,0,0,0-3.27,2.17,13.56,13.56,0,0,0-2.27,3.25,6,6,0,0,0-.49,3.87,9.32,9.32,0,0,1,3.93-.27,4.8,4.8,0,0,1,2.55,1.06,1.28,1.28,0,0,1,.45.67,1.13,1.13,0,0,1-.89,1.19A3.44,3.44,0,0,1,347,353a28.62,28.62,0,0,0-3.45-.48,3.15,3.15,0,0,0-1.3.08c-1.09.38-1.48,1.74-1.42,2.89a1.65,1.65,0,0,0,.49,1.27c.57.45,1.39.12,2.07-.16a10.42,10.42,0,0,1,3.69-.78.89.89,0,0,1,.43.07.64.64,0,0,1,.11.92,1.66,1.66,0,0,1-.9.51,19.59,19.59,0,0,1-2.94.68c-.58.09-1.25.21-1.53.73a1.61,1.61,0,0,0-.15.72,9,9,0,0,0,1.56,5.34,2.5,2.5,0,0,0,.68.73,2.94,2.94,0,0,0,1.24.34,20.36,20.36,0,0,0,9.76-1.44.72.72,0,0,0,.41-.29c.19-.32-.13-.69-.36-1-1-1.26-.8-3.11-.5-4.72a1.38,1.38,0,0,1,.35-.83.94.94,0,0,1,1.26.19,2.37,2.37,0,0,1,.47,1.32,12.31,12.31,0,0,1-.4,4.94,25,25,0,0,0,4.7-1.6,14.23,14.23,0,0,0,3.42-1.88,5.57,5.57,0,0,0,2.07-3.22,1,1,0,0,0-.07-.72,1.14,1.14,0,0,0-.42-.36,8.89,8.89,0,0,1-3.3-3.9c-.14-.32-.21-.79.1-.95a.64.64,0,0,1,.41,0c1.77.3,2.66,2.27,4.11,3.31a.73.73,0,0,0,.41.18.74.74,0,0,0,.48-.2,3.82,3.82,0,0,0,1.12-2.05,7.28,7.28,0,0,0-.24-4.66A5.29,5.29,0,0,0,366,344.9a6.21,6.21,0,0,0-2.19-.1c-.25,0-1.6.47-1.78.31-.34-.29.53-1.17.7-1.51C363.66,341.67,362.45,339,360.75,337.9Z"/><path class="cls-2_designer-98" d="M381.9,325.22a6.76,6.76,0,0,0-5.52,2.91,7.64,7.64,0,0,0-1,4.83,22.81,22.81,0,0,0,1.2,4.87,6.89,6.89,0,0,1,5.35-3.49c2.28-.19-.38,2-.78,2.47-1.28,1.5-2.52,3.06-3.73,4.62a2.92,2.92,0,0,0-.69,1.34,2.83,2.83,0,0,0,.49,1.59c1.08,2,2.24,4.08,4.13,5.35a1.72,1.72,0,0,0,1.83.29,2.11,2.11,0,0,0,.62-.89,15.47,15.47,0,0,1,2.58-3.87c.26-.28.66-.58,1-.37s.26.53.23.84l-.29,3.13a7.45,7.45,0,0,0,.19,3.36c.74,2,3,3,5.06,3.38a3.21,3.21,0,0,0,1.74,0c1.13-.39,1.58-1.72,1.79-2.9a8.39,8.39,0,0,1,1.83-4.15,15.32,15.32,0,0,0,1.92,5.77,6.73,6.73,0,0,0,5.09,3.75,24,24,0,0,0,5.62.31,14.48,14.48,0,0,0,3.83-.5,5.18,5.18,0,0,0,3-2.28c1.1-2,.25-4.55-1.18-6.32s-3.36-3.08-4.85-4.8a13.71,13.71,0,0,1,5.06,2.64c.41.34.89.74,1.42.64a1.22,1.22,0,0,0,.65-.37c2.21-2.21-.34-5.95-1.51-7.93-.78-1.33-1.68-2.75-3.14-3.22a5.11,5.11,0,0,0-2.52-.05c-1.26.22-7.5,3.05-4.85-.68a7.35,7.35,0,0,1,5.81-2.53c1.07.09,2.72,1,2.69-1a3.89,3.89,0,0,0-.82-2,42.33,42.33,0,0,0-2.8-3.74,1.86,1.86,0,0,0-1-.74,1.79,1.79,0,0,0-1.06.3c-2.64,1.37-5.35,2.79-8.31,3.1-.67.07-1.62-.2-1.5-.86a1,1,0,0,1,.43-.58c1.78-1.34,4.45-.8,6.26-2.08a2.16,2.16,0,0,0,1-1.57c0-.95-.77-1.69-1.53-2.26-2-1.5-4.19-2.9-6.67-3.1-3.68-.29-7,2.13-9.48,4.9-.82.93-1.42,3.37-2.67,3.22a19.23,19.23,0,0,1-2.39-1A8.61,8.61,0,0,0,381.9,325.22Z"/><path class="cls-2_designer-98" d="M364.07,305.86a6.12,6.12,0,0,0-1.84-3.74c-1.86-1.7-4.69-1.78-7.19-1.44a38.53,38.53,0,0,0-5.52,1.64c-1.8.52-2.34.93-.72,2.39,1.13,1,4.23,4.69,2.84,6.44s-3.75-2.72-4.67-3.47a6.62,6.62,0,0,0-4.42-1.88,6.81,6.81,0,0,0-3.8,2,40.82,40.82,0,0,0-3.11,3.06,1.5,1.5,0,0,0-.36.55c-.23.82.87,1.3,1.7,1.45,2.37.43,5,1.65,5.49,4-2.44.6-4.73-1.87-7.22-1.6-1.85.21-3.19,1.87-4,3.54a8.83,8.83,0,0,0-.6,5,13.25,13.25,0,0,1,6.55-.57,1.18,1.18,0,0,1,.72.33.8.8,0,0,1-.31,1.09,2.37,2.37,0,0,1-1.24.22l-4.06,0a1.78,1.78,0,0,0-1.14.26,1.67,1.67,0,0,0-.44,1.06,21.72,21.72,0,0,0-.07,5.58,4.79,4.79,0,0,0,1.27,3.11,4.88,4.88,0,0,0,2.16.93,30,30,0,0,0,6.25.78,5,5,0,0,1-.63-4.53c.84-2,2.27-.82,2.35,1,0,.84-.17,1.66-.19,2.5a.65.65,0,0,0,.41.72,5.12,5.12,0,0,0,3.64.47,2.26,2.26,0,0,0,1-.44c.74-.62.69-1.76.58-2.72l-.57-5a.86.86,0,0,1,.13-.69c.27-.26.71-.05,1,.19a4.56,4.56,0,0,1,1.5,3.69c-.06.79-.32,1.56-.38,2.35a2.26,2.26,0,0,0,.83,2.11,2.82,2.82,0,0,0,2.16.11,4.14,4.14,0,0,0,2.45-1.27,3.74,3.74,0,0,0,.46-3,18.61,18.61,0,0,1-.58-3c0-2.07,2.12-5,2.48-1.42a28.47,28.47,0,0,1-.22,3.56.9.9,0,0,0,.08.46.92.92,0,0,0,.78.37,8.77,8.77,0,0,0,4.78-.91,7.45,7.45,0,0,0,2.61-2.11,12.63,12.63,0,0,0,1.3-2.33c1.69-3.6,4.4-6.41,1.25-10.26-1.08-1.33-3.09-1.67-4.1-3-1.19-1.6.66-4.13.72-6.12A7.37,7.37,0,0,0,364.07,305.86Z"/><path class="cls-3_designer-98" d="M354,374.61h35.71l-2.75,26.79a8,8,0,0,1-7.94,7.17H364.66a8,8,0,0,1-7.94-7.17Z"/><path class="cls-2_designer-98" d="M379,409.3H364.66a8.69,8.69,0,0,1-8.66-7.82l-2.75-26.8a.73.73,0,0,1,.19-.56.71.71,0,0,1,.53-.24h35.71a.71.71,0,0,1,.53.24.73.73,0,0,1,.19.56l-2.75,26.8A8.69,8.69,0,0,1,379,409.3Zm-24.22-34,2.67,26a7.23,7.23,0,0,0,7.22,6.52H379a7.24,7.24,0,0,0,7.22-6.52l2.67-26Z"/><path class="cls-2_designer-98" d="M376.78,375.08c0-.26-2.84-25.9,9.75-46.56l1.2.72c-12.34,20.25-9.59,45.43-9.56,45.68Z"/><path class="cls-3_designer-98" d="M344.36,326.42a.7.7,0,0,1-.48-.19.69.69,0,0,1,0-1c7.31-7.71,18.82-12.4,19.3-12.59a.7.7,0,0,1,.91.39.69.69,0,0,1-.39.9c-.11.05-11.71,4.77-18.81,12.26A.71.71,0,0,1,344.36,326.42Z"/><path class="cls-3_designer-98" d="M349.29,362.1A.72.72,0,0,1,349,362a.7.7,0,0,1-.3-.94,58.18,58.18,0,0,1,10-13.58.7.7,0,1,1,1,1,57.83,57.83,0,0,0-9.72,13.22A.7.7,0,0,1,349.29,362.1Z"/><path class="cls-3_designer-98" d="M408.81,352.24a.71.71,0,0,1-.58-.31c-.34-.51-8.44-12.54-18-19.73a.7.7,0,1,1,.84-1.12c9.55,7.21,17.43,18.78,18.29,20.08a.7.7,0,0,1-.19,1A.77.77,0,0,1,408.81,352.24Z"/></g><g id="Cup_designer-98"><path class="cls-2_designer-98" d="M375,225.32a.69.69,0,0,1-.69-.59l-3.45-22.28-6.05,2.61a.71.71,0,0,1-.92-.37.7.7,0,0,1,.37-.92l6.87-3a.75.75,0,0,1,.62,0,.69.69,0,0,1,.35.51l3.59,23.18a.69.69,0,0,1-.58.79Z"/><polygon class="cls-3_designer-98" points="386.83 249.31 369.31 249.31 368.36 211.58 387.78 211.58 386.83 249.31"/><path class="cls-2_designer-98" d="M386.83,250H369.31a.7.7,0,0,1-.7-.68l-.95-37.73a.66.66,0,0,1,.2-.51.71.71,0,0,1,.5-.21h19.42a.71.71,0,0,1,.5.21.66.66,0,0,1,.2.51l-1,37.73A.7.7,0,0,1,386.83,250ZM370,248.61h16.16l.91-36.33h-18Z"/><rect class="cls-3_designer-98" x="366.57" y="207.76" width="22.99" height="3.82"/><path class="cls-2_designer-98" d="M389.57,212.28h-23a.7.7,0,0,1-.7-.7v-3.82a.7.7,0,0,1,.7-.7h23a.7.7,0,0,1,.7.7v3.82A.7.7,0,0,1,389.57,212.28Zm-22.3-1.4h21.6v-2.42h-21.6Z"/><path class="cls-1_designer-98" d="M378.45,236.56c-4.25,0-7.7-3.75-7.7-8.36s3.45-8.37,7.7-8.37,7.69,3.75,7.69,8.37S382.69,236.56,378.45,236.56Zm0-15.33c-3.47,0-6.3,3.13-6.3,7s2.83,7,6.3,7,6.29-3.12,6.29-7S381.92,221.23,378.45,221.23Z"/></g><g id="Character_designer-98"><path class="cls-3_designer-98" d="M206.2,321.79c.29,1-17.4,64.46-17.4,64.46l24.71,4,29.22-87.69Z"/><path class="cls-2_designer-98" d="M213.51,390.93h-.11l-24.71-4a.7.7,0,0,1-.48-.32.65.65,0,0,1-.08-.56c6.89-24.73,17.17-62.12,17.37-64.22a.69.69,0,0,1,.37-.67l36.53-19.25a.7.7,0,0,1,.78.09.69.69,0,0,1,.21.75l-29.21,87.69A.71.71,0,0,1,213.51,390.93Zm-23.83-5.25L213,389.44,241.51,304l-34.72,18.29C206.05,326.28,200.31,347.57,189.68,385.68Z"/><path class="cls-2_designer-98" d="M187.31,383.51l-3.77,11.84,59.19,4.59a24.72,24.72,0,0,0-13.44-12.12c-6.16-2.16-12.78-4.72-12.78-4.72l-3,7.13Z"/><path class="cls-2_designer-98" d="M242.73,400.64h-.06l-59.19-4.58a.71.71,0,0,1-.61-.91l3.77-11.84a.7.7,0,0,1,.84-.47l25.62,6.57,2.76-6.58a.7.7,0,0,1,.9-.38c.07,0,6.68,2.59,12.76,4.72a25.23,25.23,0,0,1,13.85,12.49.73.73,0,0,1-.07.69A.71.71,0,0,1,242.73,400.64Zm-58.26-5.92,57.05,4.42a24.07,24.07,0,0,0-12.47-10.66c-5-1.75-10.35-3.79-12.16-4.49l-2.73,6.51a.7.7,0,0,1-.82.41l-25.57-6.56Z"/><path class="cls-3_designer-98" d="M226.71,280s55.93,3,59.45,10.95S263.8,386.5,263.8,386.5,291.18,396,286.7,398s-49.28-2-49.28-2l21.23-81.13-55.33-3.74Z"/><path class="cls-2_designer-98" d="M279.61,399.2c-13.14,0-38.66-2.23-42.26-2.55a.69.69,0,0,1-.61-.87l21-80.32-54.49-3.68a.7.7,0,0,1-.59-.4.72.72,0,0,1,.08-.72l23.39-31.11a.67.67,0,0,1,.6-.28c.14,0,14.17.77,28.45,2.5,29.24,3.53,31,7.55,31.6,8.87,3.46,7.83-19.61,86.81-22.14,95.41,7.43,2.59,23.11,8.39,23.23,11.27a1.3,1.3,0,0,1-.91,1.26C286,399,283.29,399.2,279.61,399.2Zm-41.31-3.87c13,1.14,44.65,3.51,48.11,2l0,0c-.93-1.7-12.44-6.53-22.88-10.13a.7.7,0,0,1-.44-.86c7.18-24.3,25.19-88.75,22.39-95.09-2.73-6.16-42.76-9.66-58.47-10.52l-22.4,29.78,54,3.65a.68.68,0,0,1,.52.29.72.72,0,0,1,.11.59Zm48.24,1.9Z"/><path class="cls-3_designer-98" d="M207.75,230.2s28.73,35.84,41,34.84,47.41-45.18,47.41-45.18c6.36-7.59,13.48-17.22,8.91-27.68-.43-1-1.22-2.08-2.31-2a2.88,2.88,0,0,0-1.27.52l-4,2.41c.13-1.08-1.24-1.85-2.29-1.56a4.81,4.81,0,0,0-2.41,2.1c-4.07,5.8-6.71,11.32-6.48,18.46l-41.11,20.95-16.3-18"/><path class="cls-2_designer-98" d="M248.27,265.76c-12.76,0-39.9-33.67-41.07-35.13a.7.7,0,0,1,1.09-.87c.28.35,27.89,34.6,39.93,34.6a3.7,3.7,0,0,0,.48,0c11.84-1,46.57-44.48,46.92-44.92,6.56-7.81,13.18-17,8.82-27-.17-.39-.75-1.64-1.62-1.58a2.35,2.35,0,0,0-1,.42l-4,2.4a.7.7,0,0,1-.74,0,.73.73,0,0,1-.32-.68.58.58,0,0,0-.24-.52,1.38,1.38,0,0,0-1.16-.28,4.14,4.14,0,0,0-2,1.84c-3.45,4.9-6.6,10.47-6.36,18a.69.69,0,0,1-.38.64l-41.11,21a.69.69,0,0,1-.83-.15l-16.3-18a.7.7,0,1,1,1-.94l15.94,17.6,40.24-20.5c-.12-7.74,3.1-13.44,6.62-18.44a5.39,5.39,0,0,1,2.8-2.38,2.76,2.76,0,0,1,2.44.57,2.31,2.31,0,0,1,.48.57l3.14-1.91a3.68,3.68,0,0,1,1.59-.62c1.23-.1,2.3.8,3,2.42,5.06,11.62-4.1,22.54-9,28.41-1.43,1.8-35.45,44.42-47.88,45.43Z"/><path class="cls-3_designer-98" d="M113.7,224.08s-14.78,33.52-9.32,37.06,38.9,0,38.9,0l-2.89-43.4"/><path class="cls-2_designer-98" d="M117.09,263.4c-6,0-11.14-.42-13.09-1.67-1-.63-3.87-2.51,2.33-20.68,3-8.75,6.7-17.17,6.73-17.26a.7.7,0,0,1,.93-.35.69.69,0,0,1,.35.92c-5.62,12.75-13.19,33.85-9.58,36.19,4.21,2.73,28.07.95,37.77,0l-2.84-42.72a.7.7,0,1,1,1.39-.1l2.9,43.4a.7.7,0,0,1-.63.74C142.45,261.93,128.34,263.4,117.09,263.4Z"/><path class="cls-3_designer-98" d="M125.76,280.91s-7.23,16.07.48,26.2,114.83,11.36,114.83,11.36l7.69-38.5L204,273.88l-2.6-13.32Z"/><path class="cls-2_designer-98" d="M241.07,319.17h0c-.27,0-27.11-.33-54.55-1.89-37-2.1-57.5-5.38-60.83-9.75-7.87-10.34-.86-26.24-.56-26.91a.69.69,0,0,1,.46-.39l75.65-20.34a.63.63,0,0,1,.55.08.73.73,0,0,1,.32.46l2.5,12.82,44.25,6a.69.69,0,0,1,.48.29.73.73,0,0,1,.12.54l-7.7,38.49A.7.7,0,0,1,241.07,319.17Zm-114.8-37.68c-.92,2.23-6.28,16.26.53,25.19,5.91,7.76,76.6,10.63,113.69,11.08l7.44-37.19-44-6a.68.68,0,0,1-.59-.56l-2.46-12.58Z"/><path class="cls-3_designer-98" d="M169.64,145.51a9.65,9.65,0,0,1-2.83-2.55,14.79,14.79,0,0,1-2.23-5c-3.78-13.71-3.81-31.28,8.36-40.68a28.39,28.39,0,0,1,25.69-4.54c5.93,1.92,11,10.09,13.61,15.33,2.17,4.31,3.64,9,6.22,13s6.67,7.61,11.49,7.84a14.54,14.54,0,0,1-12.56.76,8.23,8.23,0,0,0,8.33,3.12c-2.82,2.22-6.81,2.14-10.33,1.46s-7-1.86-10.62-1.46c-5.58.64-9.24,4.75-13.63,7.73C185.63,144.29,176,149.21,169.64,145.51Z"/><path class="cls-2_designer-98" d="M174.92,147.52a10.94,10.94,0,0,1-5.63-1.41h0a10.22,10.22,0,0,1-3-2.73,15.68,15.68,0,0,1-2.34-5.26c-1.86-6.73-6.72-29.59,8.6-41.42A29.06,29.06,0,0,1,198.84,92c6.37,2.06,11.52,10.71,14,15.69.84,1.67,1.59,3.42,2.31,5.12a55.09,55.09,0,0,0,3.87,7.86c1.38,2.17,5.2,7.25,10.93,7.52a.69.69,0,0,1,.65.53.69.69,0,0,1-.34.77,15.26,15.26,0,0,1-10.22,1.68,7.5,7.5,0,0,0,5.49.92.69.69,0,0,1,.79.38.7.7,0,0,1-.2.85c-2.5,2-6.16,2.51-10.89,1.6-.85-.17-1.69-.36-2.53-.55a23.94,23.94,0,0,0-7.88-.9c-4,.45-6.91,2.74-10,5.17-1.06.82-2.15,1.67-3.28,2.44C188.28,143.34,181.27,147.52,174.92,147.52ZM190.25,92.1a27.79,27.79,0,0,0-16.88,5.71c-14.64,11.29-9.91,33.42-8.11,39.94a14.41,14.41,0,0,0,2.11,4.79A8.85,8.85,0,0,0,170,144.9h0c6.75,3.93,17.6-2.79,20.76-4.94,1.1-.74,2.17-1.58,3.21-2.39,3.14-2.44,6.38-5,10.73-5.45a24.73,24.73,0,0,1,8.35.93c.83.18,1.65.37,2.48.53a15.7,15.7,0,0,0,7.08,0,8.88,8.88,0,0,1-5.77-3.49.7.7,0,0,1,.83-1.06,13.87,13.87,0,0,0,9.89.22c-3.64-1-7.08-3.7-9.68-7.8a54.75,54.75,0,0,1-4-8.06c-.72-1.68-1.46-3.41-2.28-5-1.94-3.85-7.11-13-13.21-15A26.65,26.65,0,0,0,190.25,92.1Z"/><path class="cls-3_designer-98" d="M207.58,135.54s3.83,12,1.86,13.65-6.16-1-6.16-1"/><path class="cls-2_designer-98" d="M207.71,150.47a10.39,10.39,0,0,1-4.8-1.66.7.7,0,0,1-.22-1,.71.71,0,0,1,1-.22c1,.62,4,2.14,5.32,1,1-.84-.29-7.35-2.07-12.91a.71.71,0,0,1,.46-.88.7.7,0,0,1,.88.45c.93,2.91,3.8,12.54,1.65,14.39A3.28,3.28,0,0,1,207.71,150.47Z"/><path class="cls-3_designer-98" d="M209.91,121.83c3.26,4.66,0,11.62-1.4,16.37q-2.91,10-6.27,19.89c-1.42,4.17-12.43,1.17-14-.64l-3,17.24-23.19-8,7.46-20.91s7.46,2.15,14.18-5.28,11.4-26.38,11.4-26.38S206.72,117.29,209.91,121.83Z"/><path class="cls-2_designer-98" d="M185.23,175.39a.57.57,0,0,1-.22,0l-23.19-8a.7.7,0,0,1-.41-.36.72.72,0,0,1,0-.54l7.46-20.91a.7.7,0,0,1,.85-.44c.28.08,7.14,1.92,13.47-5.07,6.53-7.22,11.19-25.89,11.24-26.08a.71.71,0,0,1,.32-.44.73.73,0,0,1,.54-.07c.49.14,11.93,3.31,15.22,8h0c2.91,4.15,1,9.84-.49,14.41-.3.9-.58,1.76-.81,2.55-1.93,6.66-4,13.36-6.27,19.92-.3.87-1.1,2-3.25,2.41-3.38.67-8.55-.65-10.93-2l-2.81,16.12a.66.66,0,0,1-.33.48A.65.65,0,0,1,185.23,175.39Zm-22.29-9.16,21.75,7.53,2.85-16.43a.7.7,0,0,1,1.22-.34c1,1.17,7.07,3.06,10.63,2.36,1.2-.24,1.94-.74,2.19-1.49,2.23-6.54,4.33-13.22,6.25-19.86.24-.81.53-1.68.83-2.6,1.42-4.27,3.18-9.59.67-13.17s-11.24-6.5-13.75-7.26c-.93,3.57-5.28,19.23-11.38,26-5.86,6.48-12.23,6-14.25,5.62Z"/><path class="cls-3_designer-98" d="M203.49,153.05s-6.09,1.74-7.34-4.41"/><path class="cls-2_designer-98" d="M201.63,154a6.6,6.6,0,0,1-3.4-.87,6.23,6.23,0,0,1-2.77-4.32.71.71,0,0,1,1.38-.29,4.84,4.84,0,0,0,2.11,3.4,6.18,6.18,0,0,0,4.35.48.69.69,0,0,1,.86.48.71.71,0,0,1-.48.87A8.15,8.15,0,0,1,201.63,154Z"/><path class="cls-3_designer-98" d="M193.54,136.22a9.44,9.44,0,0,0-.58-5.12,13.74,13.74,0,0,0-1.57-3.72,4.56,4.56,0,0,0-3.3-2.11,4.23,4.23,0,0,0-3.2,1.34,7.84,7.84,0,0,0-1.77,3.08,14.9,14.9,0,0,0,3,14.6l-.25-.5"/><path class="cls-2_designer-98" d="M186.16,145a.71.71,0,0,1-.52-.23,15.72,15.72,0,0,1-3.19-15.3,8.64,8.64,0,0,1,1.94-3.35,4.92,4.92,0,0,1,3.75-1.54A5.19,5.19,0,0,1,192,127a14.11,14.11,0,0,1,1.66,3.91,10.08,10.08,0,0,1,.59,5.5.7.7,0,1,1-1.35-.36,9.08,9.08,0,0,0-.58-4.73,12.4,12.4,0,0,0-1.48-3.53,3.83,3.83,0,0,0-2.76-1.81,3.52,3.52,0,0,0-2.67,1.13,7.29,7.29,0,0,0-1.6,2.81,14.3,14.3,0,0,0,2.29,13.2.65.65,0,0,1,.45.36l.26.5a.69.69,0,0,1-.23.89A.65.65,0,0,1,186.16,145Z"/><ellipse class="cls-2_designer-98" cx="207.08" cy="129.78" rx="2.48" ry="0.98" transform="translate(35.2 303.52) rotate(-77.39)"/><path class="cls-2_designer-98" d="M188.23,157.45a84.66,84.66,0,0,1-8.72-6.49s-1.38,12.13,6.91,14.91Z"/><path class="cls-2_designer-98" d="M186.41,166.57a.83.83,0,0,1-.22,0c-8.72-2.93-7.44-15.14-7.38-15.66a.72.72,0,0,1,.44-.57.71.71,0,0,1,.71.12,86.05,86.05,0,0,0,8.65,6.43.71.71,0,0,1,.31.74L187.1,166a.7.7,0,0,1-.69.55Zm-6.28-14.18c0,3,.4,10.15,5.77,12.54l1.55-7.15C186.39,157.08,183.45,155.1,180.13,152.39Z"/><path class="cls-4_designer-98 targetColor" d="M121.42,286.21s1.27-85.68,14.11-105.41,46.14-24.17,62.11-12.42S205.89,270,205.89,270,155.17,286.21,121.42,286.21Z" style="fill: rgb(185, 227, 27);"/><path class="cls-4_designer-98 targetColor" d="M186.53,163.34A92.86,92.86,0,0,1,210,177.18c11,9.13,34.23,48.45,34.23,48.45L213.61,244.2l-27.5-33.91Z" style="fill: rgb(185, 227, 27);"/><path class="cls-4_designer-98 targetColor" d="M148.78,168.68s-16,1.8-24.51,19.4c-4.6,9.55-16.35,40.37-16.35,40.37l35.36,4.08Z" style="fill: rgb(185, 227, 27);"/><path class="cls-2_designer-98" d="M211.31,242.05a.72.72,0,0,1-.57-.28l-27.32-37.21a.7.7,0,1,1,1.13-.83l27.32,37.21a.7.7,0,0,1-.15,1A.69.69,0,0,1,211.31,242.05Z"/><path class="cls-2_designer-98" d="M292.84,200l6.83-21.19,2.13.6-4.3,20.93S294.48,203.25,292.84,200Z"/><path class="cls-2_designer-98" d="M294.94,202.24a2.49,2.49,0,0,1-.47,0,3.14,3.14,0,0,1-2.25-1.88.7.7,0,0,1-.05-.53l6.84-21.2a.7.7,0,0,1,.85-.46l2.13.61a.69.69,0,0,1,.49.81l-4.29,20.93a.68.68,0,0,1-.2.36A5,5,0,0,1,294.94,202.24Zm-1.34-2.31a1.63,1.63,0,0,0,1.1.89,3.11,3.11,0,0,0,2.16-.85L301,179.91l-.85-.24Z"/><path class="cls-4_designer-98 targetColor" d="M163.65,151.94c-12.59-2.76-26.58-.84-36.78,7.05-4.2,3.26-7.75,7.57-9.28,12.66s-.8,11,2.6,15.09c9.66,11.6,30.87,11.54,44,7.76,8.94-2.58,35.43-15.15,28.14-27.5C187.07,158.1,173.1,154,163.65,151.94Z" style="fill: rgb(185, 227, 27);"/><path class="cls-2_designer-98" d="M147.6,195.49c-12.78,0-23.57-6.73-23.7-6.81a.7.7,0,0,1-.22-1,.71.71,0,0,1,1-.22c.17.11,17.48,10.89,33.87,4.67,7.87-3,12.58-8.27,17.13-13.38,5-5.61,9.71-10.9,17.86-11.64a.7.7,0,0,1,.13,1.4c-7.6.68-11.93,5.54-16.94,11.17-4.45,5-9.5,10.65-17.68,13.76A32.15,32.15,0,0,1,147.6,195.49Z"/><path class="cls-2_designer-98" d="M122.68,255.6h0a.7.7,0,0,1-.67-.73c1-22.16,5.63-54.05,5.67-54.37a.71.71,0,0,1,.8-.59.71.71,0,0,1,.59.79c0,.32-4.64,32.14-5.66,54.24A.7.7,0,0,1,122.68,255.6Z"/><path class="cls-2_designer-98" d="M230.05,394.46H259.8s3.24-7.22,10.21-8.21c0,0,27.12,11.47,23.14,13.82s-65.21,2.11-65.21,2.11Z"/><path class="cls-2_designer-98" d="M234.2,402.89h-6.26a.7.7,0,0,1-.55-.28.67.67,0,0,1-.12-.61l2.1-7.71a.7.7,0,0,1,.68-.52h29.31c.83-1.61,4.18-7.3,10.55-8.21a.79.79,0,0,1,.37.05c5.56,2.36,23.74,10.31,24,13.78a1.37,1.37,0,0,1-.74,1.3C290.11,402.68,250.42,402.89,234.2,402.89Zm-5.34-1.41c24.54.07,61.17-.38,63.94-2,0-1.74-11.86-7.82-22.89-12.5-6.36,1-9.44,7.71-9.47,7.78a.69.69,0,0,1-.64.41H230.58Z"/><path class="cls-1_designer-98" d="M242.73,286.91h-.13L197.47,279a.69.69,0,0,1-.56-.81.68.68,0,0,1,.8-.56l45.14,7.89a.7.7,0,0,1-.12,1.39Z"/><path class="cls-2_designer-98" d="M167.54,140.87s4.52-3.67,0-8.38h-7.3s1.58,6.12,0,8.38Z"/><path class="cls-2_designer-98" d="M167.54,141.57h-7.3a.7.7,0,0,1-.57-1.1c1.14-1.64.31-6.19-.11-7.81a.72.72,0,0,1,.13-.6.7.7,0,0,1,.55-.27h7.3a.71.71,0,0,1,.5.21,6.71,6.71,0,0,1,2.2,5.08,6.61,6.61,0,0,1-2.26,4.33A.66.66,0,0,1,167.54,141.57Zm-6.21-1.4h5.93a5.05,5.05,0,0,0,1.58-3.19,5.22,5.22,0,0,0-1.61-3.79h-6.11C161.46,134.77,162,138,161.33,140.17Z"/><path class="cls-3_designer-98" d="M163.58,138.11c.25-1.63-.25-2.88-1.58-4.47a8.64,8.64,0,0,0-6.16-3.58c-3.4-.84-7.38.22-10.86.29a27.81,27.81,0,0,1-10.89-2,7.51,7.51,0,0,1-3.12-2c-.87,5.09-.76,10.69,2.17,15,2.28,3.32,6,5.4,9.78,6.76,5.55,2,11,1.39,15.72-2.27a13.73,13.73,0,0,0,4.45-5.87A9.45,9.45,0,0,0,163.58,138.11Z"/><path class="cls-2_designer-98" d="M149,149.83a18.71,18.71,0,0,1-6.35-1.16c-4.67-1.67-8.07-4-10.12-7-2.62-3.82-3.39-9-2.28-15.47a.7.7,0,0,1,1.24-.32,6.83,6.83,0,0,0,2.83,1.83,27.6,27.6,0,0,0,10.62,2c1.15,0,2.34-.15,3.6-.29a21.61,21.61,0,0,1,7.44,0,12.12,12.12,0,0,1,4.58,1.83,11.76,11.76,0,0,1,1.95,2c1.5,1.79,2,3.25,1.73,5h0a9.53,9.53,0,0,1-.53,1.9,14.25,14.25,0,0,1-4.67,6.17A16.07,16.07,0,0,1,149,149.83Zm-17.57-22.1c-.73,5.46,0,9.87,2.25,13.12,1.88,2.75,5.06,4.93,9.44,6.5a15.14,15.14,0,0,0,15.06-2.17,12.76,12.76,0,0,0,4.22-5.56,8.66,8.66,0,0,0,.46-1.62c.2-1.36-.18-2.42-1.42-3.91a11.54,11.54,0,0,0-1.72-1.77,11.05,11.05,0,0,0-4.08-1.58,20.72,20.72,0,0,0-6.94,0c-1.24.13-2.53.27-3.74.3A28.75,28.75,0,0,1,133.83,129,10.86,10.86,0,0,1,131.46,127.73Zm32.12,10.38h0Z"/></g><g id="Wall_Artwork_designer-98" data-name="Wall Artwork"><rect class="cls-3_designer-98" x="320.11" y="109.01" width="84.99" height="59.66"/><path class="cls-1_designer-98" d="M405.1,169.38h-85a.7.7,0,0,1-.7-.7V109a.7.7,0,0,1,.7-.7h85a.71.71,0,0,1,.7.7v59.67A.71.71,0,0,1,405.1,169.38ZM320.81,168H404.4V109.71H320.81Z"/><path class="cls-1_designer-98" d="M345.06,156.87a15.43,15.43,0,0,1-5-.88,33.87,33.87,0,0,1-6.12-2.62h0c-.47-.28-.94-.58-1.38-.89a10.21,10.21,0,0,1-4.5-6.73,4.49,4.49,0,0,1,.48-2.95,6.72,6.72,0,0,1,3.07-2.33,7.69,7.69,0,0,0,2.25-1.43c1.4-1.5.86-3.68.29-6-.15-.58-.29-1.16-.4-1.72a12.1,12.1,0,0,1,2.65-10.19,12.37,12.37,0,0,1,10.41-4c5.43.62,9.72,3.23,11.76,7.17,1.82,3.52,1.62,7.66-.58,11.67-.7,1.27-1.36,2.48-1.22,3.64a6.31,6.31,0,0,0,1.74,3,7.71,7.71,0,0,1,2,3.66c.34,2.28-1.17,4.48-4.61,6.72C352.69,155.06,349.19,156.87,345.06,156.87Zm-10.45-4.71a32.93,32.93,0,0,0,5.86,2.51c5.9,2,10.54-.19,14.67-2.87,2.93-1.9,4.24-3.65,4-5.34a6.77,6.77,0,0,0-1.74-3,7.43,7.43,0,0,1-2.05-3.76,7.42,7.42,0,0,1,1.33-4.37c2-3.69,2.22-7.36.62-10.45-1.83-3.52-5.72-5.87-10.68-6.43a10.86,10.86,0,0,0-9.19,3.57,10.72,10.72,0,0,0-2.34,9c.11.53.25,1.09.38,1.65.61,2.45,1.3,5.23-.62,7.28a8.49,8.49,0,0,1-2.65,1.73,5.56,5.56,0,0,0-2.48,1.8,3.08,3.08,0,0,0-.31,2,9,9,0,0,0,3.94,5.78c.41.29.83.56,1.27.82Z"/><path class="cls-1_designer-98" d="M383.18,156.46a28.2,28.2,0,0,1-10.46-2.17L372,154a9,9,0,0,0-9.51.37,16.86,16.86,0,0,1-4.87,1.64c-3.59.45-7.14-1.1-10-4.34h0a16,16,0,0,1-3.9-8.14,8.58,8.58,0,0,1,4.7-9c3.24-1.42,6.7-.44,10.06.51,2.49.7,5.07,1.44,7.52,1.16a18,18,0,0,0,5.55-1.94,31.7,31.7,0,0,1,3.53-1.5c5.56-1.86,16.42,0,20.69,4.67a9.66,9.66,0,0,1,2.31,9.21,13.49,13.49,0,0,1-8.84,8.92A19.4,19.4,0,0,1,383.18,156.46Zm-15.5-5H368a13.59,13.59,0,0,1,4.55,1.28l.68.28c5.57,2.25,11.1,2.68,15.58,1.22a12.06,12.06,0,0,0,7.91-8,8.29,8.29,0,0,0-2-7.91c-3.84-4.23-14.07-6-19.2-4.28a30.35,30.35,0,0,0-3.38,1.44,19.25,19.25,0,0,1-6,2.06c-2.73.31-5.44-.46-8.07-1.21-3.25-.92-6.32-1.79-9.11-.57-3.13,1.38-4.2,4.89-3.87,7.57a14.47,14.47,0,0,0,3.56,7.38c1.48,1.67,4.59,4.41,8.79,3.88a15.54,15.54,0,0,0,4.46-1.53A14,14,0,0,1,367.68,151.42Z"/><path class="cls-1_designer-98" d="M381.19,146a6.07,6.07,0,0,1-5-2.08,9.37,9.37,0,0,0-2.31-1.77,9.58,9.58,0,0,0-3.28-.88c-1.81-.27-3.68-.54-5.26-2.53a8.23,8.23,0,0,1-1.56-6.74,11.22,11.22,0,0,1,5.17-7.44c7.38-4.35,21.08.17,25.54,6.59,1.58,2.27,3.38,6.75-2.23,11.32a18,18,0,0,1-10.21,3.5h0Zm-5-21.76a12.77,12.77,0,0,0-6.45,1.52,9.76,9.76,0,0,0-4.51,6.49,6.82,6.82,0,0,0,1.27,5.62c1.24,1.55,2.69,1.76,4.37,2a11.07,11.07,0,0,1,3.73,1,10.55,10.55,0,0,1,2.63,2c1.16,1.11,1.91,1.85,4.8,1.66h0c2.72-.18,6.57-.88,9.42-3.19,3.56-2.89,4.24-6.16,2-9.43C390.38,127.61,382.67,124.21,376.15,124.21Z"/><rect class="cls-3_designer-98" x="250" y="101.61" width="59.44" height="39.26"/><path class="cls-1_designer-98" d="M309.44,141.57H250a.7.7,0,0,1-.7-.7V101.61a.7.7,0,0,1,.7-.7h59.44a.7.7,0,0,1,.7.7v39.26A.7.7,0,0,1,309.44,141.57Zm-58.74-1.4h58V102.31h-58Z"/><rect class="cls-3_designer-98" x="250" y="140.87" width="59.44" height="7.78"/><path class="cls-1_designer-98" d="M309.44,149.35H250a.7.7,0,0,1-.7-.7v-7.78a.7.7,0,0,1,.7-.7h59.44a.7.7,0,0,1,.7.7v7.78A.7.7,0,0,1,309.44,149.35ZM250.7,148h58v-6.38h-58Z"/><path class="cls-1_designer-98" d="M256.8,131.74a.66.66,0,0,1-.44-.16.7.7,0,0,1-.11-1c.68-.85,16.79-20.63,31.84-19.43,6,.47,10.08,3.6,11,8.37a9.47,9.47,0,0,1-5.19,10.3c-4.16,1.95-8.1,1.92-10.82-.08-2.31-1.71-3.36-4.64-2.88-8,.56-4,3-5.19,4.39-5.59a7.31,7.31,0,0,1,7.16,2,3,3,0,0,1,.46,3.42q-1.59,3.1-3.74,3.2c-2.29.06-4-2.59-4-2.7a.7.7,0,0,1,1.19-.74c.36.59,1.52,2.12,2.79,2,1.1,0,2-1.35,2.55-2.44a1.64,1.64,0,0,0-.3-1.9,5.89,5.89,0,0,0-5.7-1.57c-1.31.37-3,1.44-3.38,4.44s.44,5.32,2.33,6.71c2.28,1.69,5.71,1.67,9.39-.06a8.06,8.06,0,0,0,4.4-8.78c-.74-4.1-4.36-6.81-9.68-7.23-14.3-1.14-30.47,18.71-30.64,18.91A.67.67,0,0,1,256.8,131.74Z"/><path class="cls-1_designer-98" d="M280,177.38H257.11a.7.7,0,0,1-.7-.7V158.52a.71.71,0,0,1,.7-.7H280a.7.7,0,0,1,.7.7v18.16A.7.7,0,0,1,280,177.38ZM257.81,176h21.51V159.22H257.81Z"/><path class="cls-1_designer-98" d="M268.57,161.77a.7.7,0,0,1-.7-.7v-4.34a.7.7,0,1,1,1.4,0v4.34A.71.71,0,0,1,268.57,161.77Z"/></g><g id="Chair_designer-98"><path class="cls-2_designer-98" d="M145.78,322.62l-4.15,66.86s-14.2.5-17.76,3-6.45,13.77-6.45,13.77h4.42s2.58-8.35,5.4-9.4,18.91-1.38,18.91-1.38,7.76,3,9,8.13c1,4,.69,5,.69,5h4.91a25,25,0,0,0-1-6.8c-1-2.82-4.66-6.14-4.66-6.14s8.1.17,10.8.17,5.52,5.14,5.52,5.14h5.28s-5.52-9.28-9.08-9.95-12.73-2.24-12.73-2.24l-2.49-62.31Z"/><path class="cls-2_designer-98" d="M160.76,409.27h-4.92a.71.71,0,0,1-.56-.29.72.72,0,0,1-.11-.62s.18-1-.7-4.61c-1.06-4.38-7.48-7.19-8.45-7.59-4.55.1-16.33.52-18.53,1.34-1.82.67-4,5.85-5,8.95a.7.7,0,0,1-.67.49h-4.42a.7.7,0,0,1-.55-.27.72.72,0,0,1-.13-.6c.12-.47,3-11.57,6.73-14.17,3.29-2.3,14.64-3,17.5-3.09l4.11-66.24a.67.67,0,0,1,.37-.57.69.69,0,0,1,.68,0l6.63,3.81a.7.7,0,0,1,.35.58l2.47,61.74c2,.36,9.16,1.59,12.18,2.15,3.76.71,9,9.31,9.55,10.28a.7.7,0,0,1-.6,1.06h-5.28a.7.7,0,0,1-.61-.36c-1-1.85-3.25-4.78-4.91-4.78-1.9,0-6.51-.08-9.06-.13a16.35,16.35,0,0,1,3.58,5.17,25.55,25.55,0,0,1,1,7A.71.71,0,0,1,160.76,409.27Zm-4.18-1.4H160a22.72,22.72,0,0,0-.93-5.88c-.91-2.61-4.44-5.82-4.47-5.85a.69.69,0,0,1-.18-.78.72.72,0,0,1,.66-.44c.08,0,8.13.17,10.79.17s5.17,3.85,5.93,5.14h3.62c-1.88-2.94-5.62-8.12-8-8.56-3.51-.66-12.63-2.23-12.72-2.24a.71.71,0,0,1-.58-.67l-2.48-61.91-5.31-3.07-4.08,65.75a.7.7,0,0,1-.68.65c-3.89.14-14.59.92-17.38,2.86-2.51,1.76-4.94,8.95-5.93,12.5h3c.65-2,2.93-8.34,5.67-9.36,2.9-1.08,18.47-1.41,19.13-1.42a1.17,1.17,0,0,1,.27,0c.33.13,8.12,3.18,9.43,8.62A22.85,22.85,0,0,1,156.58,407.87Zm-15-18.39h0Z"/><path class="cls-2_designer-98" d="M207.56,325.52c18.94-4,31.65-12.85,24.2-24.8s-60.94-4.15-71.42-13.07-6.72-55.86-18.24-63.91S81.47,207.62,76,217.84,76,302,92,318.38,189.08,329.4,207.56,325.52Z"/><path class="cls-2_designer-98" d="M152,330.28h-3.16c-21.28-.19-48.51-2.32-57.35-11.4C75.58,302.53,69.38,228.55,75.34,217.5c1-1.89,3.37-3.28,7-4.14,15.21-3.6,50.42,3,60.19,9.81,6.18,4.32,8.1,19.06,10,33.32,1.7,13,3.45,26.47,8.33,30.63,4.65,3.95,18.93,4.52,32.74,5.08,17,.68,34.61,1.39,38.83,8.15,2.44,3.92,2.91,7.7,1.4,11.24-2.76,6.47-12,11.66-26,14.61h0C198.1,328.22,174.52,330.28,152,330.28ZM93,213.76a46.26,46.26,0,0,0-10.35,1c-3.19.75-5.23,1.91-6,3.44-5.43,10,.49,83.88,15.91,99.72,15.7,16.12,96.34,10.85,114.93,6.94h0C220.8,322,229.94,317,232.48,311c1.31-3.09.87-6.44-1.31-10-3.82-6.13-21-6.82-37.69-7.49-14.7-.59-28.58-1.15-33.59-5.42-5.3-4.5-7-17.62-8.82-31.51s-3.7-28.39-9.37-32.35C134.14,219,109.77,213.76,93,213.76ZM207.56,325.52h0Z"/></g></svg>