<svg width="106" height="107" viewBox="0 0 106 107" fill="none" xmlns="http://www.w3.org/2000/svg">
<path d="M38.1648 76.5403C35.1233 73.245 31.8731 70.1099 30.6116 65.5685C29.9735 63.2715 28.4253 62.6667 26.0296 62.9044C22.0016 63.304 18.1646 62.4374 14.2734 59.7894C18.8605 56.1167 24.0574 58.6215 29.1086 56.7875C20.7917 51.1698 12.0572 46.127 6.2793 36.9608C9.38785 36.3669 10.627 38.2128 12.1889 39.1967C17.2564 42.389 22.2874 45.6393 27.3317 48.8687C28.9824 49.9254 30.7596 50.8184 31.9824 48.4975C34.9831 42.8019 40.2723 39.5767 45.4858 36.0578C40.9578 23.8878 43.2724 11.9668 45.793 0C47.8359 11.4113 47.4909 23.0237 49.695 34.8754C52.1701 35.3092 55.0361 35.8115 57.7454 36.2863C64.4159 27.2772 73.2345 20.3162 80.0819 11.5842C80.9604 10.4639 82.3819 9.93027 83.5479 11.1949C85.0573 12.8319 83.903 14.2913 82.8304 15.5928C77.4178 22.1603 71.3279 28.097 65.1191 33.8766C61.8746 36.8969 60.9311 38.9585 65.11 41.9571C69.0688 44.7979 70.2748 49.1996 69.7605 53.9563C69.4756 56.5922 69.1033 59.2679 68.3369 61.7941C64.0157 76.0385 52.8373 81.6414 38.4903 76.6067C38.13 76.5105 38.1648 76.5403 38.1648 76.5403ZM60.5706 51.7836C59.1944 57.3981 55.9316 53.4996 53.0571 53.6763C53.7901 49.8479 59.8498 47.5 55.6232 43.5264C53.6852 41.7043 50.4761 41.2534 47.5835 42.537C42.4207 44.8281 46.8268 48.5618 46.3459 51.7641C44.3743 52.523 42.4428 53.2664 40.6685 53.9493C38.5808 51.9966 41.285 49.9214 40.0909 48.1702C38.0276 47.5276 37.3173 48.9192 36.5667 50.226C32.8673 56.6664 34.0289 65.9313 39.114 70.5795C44.0143 75.0587 50.6898 75.4717 56.0613 71.6281C62.3572 67.1229 66.8336 55.4305 64.3441 49.9812C64.2062 49.6796 64.0562 49.3719 63.8527 49.1137C63.0186 48.0563 62.2091 46.8846 60.589 47.844C58.8538 48.8715 59.7976 50.052 60.5706 51.7836Z" fill="black"/>
<path d="M74.9754 51.4629C85.4188 51.3144 95.4119 51.8839 105.187 52.6436C105.534 54.1973 104.949 54.6498 104.341 54.8107C94.8395 57.3231 85.2573 57.3153 75.7031 55.296C74.1663 54.9713 70.2905 54.1458 74.9754 51.4629Z" fill="black"/>
<path d="M6.07149 76.319C12.2885 73.513 18.1021 70.6999 24.3791 69.0456C26.5191 68.4816 28.5622 68.1635 30.9042 71.1726C20.8535 76.3391 10.2739 78.1214 0 80.9521C1.08819 78.0606 3.80211 77.8327 6.07149 76.319Z" fill="black"/>
<path d="M39.901 101.209C38.5444 103.17 38.2635 105.592 35.7927 106.36C34.8669 100.233 42.7297 81.9178 47.6027 79.9944C46.5893 87.834 43.329 94.3581 39.901 101.209Z" fill="black"/>
<path d="M84.0437 92.7142C77.682 86.8952 71.0772 81.4943 67.1138 73.7363C72.9247 74.6655 76.4232 78.5481 79.6324 82.5214C81.9752 85.4221 85.3026 88.1286 84.0437 92.7142Z" fill="black"/>
<path d="M85.3626 67.5078C81.9775 67.8931 79.0516 67.5405 76.2553 66.4397C74.8708 65.8946 73.2778 65.1279 73.7077 63.3172C74.1646 61.3925 75.8795 61.5819 77.3525 62.0118C80.0274 62.7923 82.7161 63.5691 85.3018 64.593C86.5777 65.0983 87.6813 66.1445 85.3626 67.5078Z" fill="black"/>
<path d="M76.5883 35.8496C78.4525 35.3057 79.8595 33.947 81.598 35.079C79.2943 40.0013 74.314 43.0988 69.6162 42.3772C69.8577 38.1533 73.523 37.5472 76.5883 35.8496Z" fill="black"/>
<path d="M54.7504 27.384C56.1644 24.4668 56.7127 21.4859 59.4712 18.6833C60.0194 23.7159 58.8446 27.6291 58.1766 31.5714C58.0052 32.5829 57.1839 33.3472 56.0085 33.1762C54.9027 33.0154 54.1933 32.1927 54.1655 31.1434C54.1358 30.0188 54.4571 28.8848 54.7504 27.384Z" fill="black"/>
<path d="M31.7818 29.2324C34.1183 31.5898 35.2924 34.3081 36.2759 37.1023C36.6637 38.204 36.7264 39.4482 35.3266 40.0416C34.2864 40.4827 33.1026 40.1453 32.6779 39.3155C31.0359 36.1075 28.7912 32.8803 31.7818 29.2324Z" fill="black"/>
<path d="M56.4976 82.7601C57.7437 79.9283 59.4524 79.9502 60.5107 82.1418C61.8829 84.9833 61.7739 88.0539 60.243 91.352C56.9687 89.0486 56.8759 86.0074 56.4976 82.7601Z" fill="black"/>
<path d="M38.1119 76.4963C38.4359 82.235 33.7974 82.7292 30.0415 84.1724C30.8354 79.9874 33.2228 77.3824 37.7986 76.5515C38.1648 76.5403 38.13 76.5105 38.1119 76.4963Z" fill="black"/>
<path d="M48.2389 63.237C50.3766 63.0406 51.4381 61.7135 52.655 60.6133C53.5397 59.8134 54.5053 59.061 55.6724 60.0822C56.5198 60.8237 56.4375 61.8434 56.1706 62.8344C55.3318 65.949 50.4651 68.7395 47.3467 67.5287C43.6847 66.107 42.1677 63.4019 43.6204 59.3296C46.1825 59.698 45.5918 63.0076 48.2389 63.237Z" fill="black"/>
</svg>
