<svg width="1265" height="832" viewBox="0 0 1265 832" fill="none" xmlns="http://www.w3.org/2000/svg">
<path d="M146.932 701.89C147.617 696.316 142.06 692.642 138.934 688.431C127.914 673.568 118.542 658.01 106.783 643.525C76.5481 606.279 66.0339 564.342 53.9106 522.786C48.7743 505.179 46.1922 487.142 41.3536 469.526C38.2983 458.402 38.4959 447.332 36.7115 436.286C35.6755 429.871 35.3653 423.246 37.9425 416.907C40.582 410.414 37.8088 403.975 38.1669 397.52C38.2724 395.618 37.1331 393.589 39.323 391.51C43.417 393.786 41.9956 397.736 44.5646 401.295C46.7183 395.298 44.8835 390.133 44.8691 385.046C44.8136 365.439 45.2889 345.832 42.7474 326.246C40.1028 305.865 46.3387 286.256 57.2289 267.911C70.7545 245.128 81.3674 221.331 98.3589 199.713C99.5065 198.253 101.057 196.679 100.068 194.413C94.2572 195.962 92.9047 200.08 90.2525 203.341C88.6688 205.289 87.9897 207.824 83.4725 206.902C80.5154 206.299 80.2118 208.633 79.3147 209.96C74.7393 216.726 70.2938 223.541 65.7818 230.331C65.3491 230.982 64.7592 231.565 62.7931 231.407C65.0839 217.483 64.0774 202.994 78.1466 191.558C81.6997 188.67 82.1677 184.74 84.0604 181.659C82.7937 179.183 80.3416 180.945 78.5363 180.064C76.2568 171.984 79.6854 164.539 84.1212 157.258C92.9736 142.728 103.763 129.052 116.829 116.415C119.29 114.035 121.571 111.395 125.706 110.22C128.61 112.627 123.156 114.887 125.715 117.248C128.942 117.28 130.109 115.217 131.681 113.78C148.225 98.659 166.244 84.6121 185.828 71.6867C187.263 70.7392 188.86 69.7697 189.761 68.5524C200.457 54.1112 216.201 43.619 234.338 34.4494C250.811 26.1212 268.903 20.1116 285.727 12.3627C286.904 11.8203 288.276 11.1901 289.702 12.1498C290.431 13.769 288.832 14.5768 287.459 15.136C272.826 21.0957 262.07 31.1196 247.435 36.9369C222.113 47.0024 207.914 64.3646 193.48 81.6525C190.282 85.4818 187.512 89.5134 184.64 93.49C182.953 95.8254 181.056 97.953 182.569 101.059C184.157 104.325 179.443 105.831 176.525 108.099C180.497 109.455 182.768 109.02 184.551 106.759C191.496 97.955 201.033 90.5112 206.603 80.8495C209.684 75.505 216.893 71.4025 222.63 67.0262C246.184 49.0585 271.128 32.4353 299.202 18.2867C309.71 12.9909 318.384 5.2998 329.113 -0.253185C336.118 -3.87873 343.086 -7.61636 349.864 -11.4203C358.944 -16.5164 370.622 -18.8333 383.362 -18.7938C393.946 -18.761 405.853 -20.5209 413.701 -27.681C414.829 -28.7096 415.993 -29.5533 417.581 -29.9811C441.317 -36.3767 464.774 -43.4447 489.733 -46.9226C490.702 -47.0578 491.605 -47.1099 492.155 -46.2594C491.912 -44.5985 489.833 -44.6187 488.412 -44.1599C448.521 -31.2772 408.568 -18.4748 370.051 -3.38632C363.373 -0.770088 356.061 -1.79419 349.444 0.861748C320.424 12.5111 294.986 27.6131 271.684 44.859C252.081 59.3669 234.624 75.3227 216.424 90.7857C206.698 99.0491 197.357 107.514 187.894 115.928C177.304 125.346 170.425 136.228 163.576 147.194C160.229 152.552 156.914 157.921 153.106 163.025C155.571 152.829 162.349 143.825 165.305 133.745C155.405 141.651 145.195 149.219 141.972 160.222C141.914 160.422 142.448 160.719 142.676 160.941C144.957 161.123 145.044 157.93 147.897 159.074C149.632 161.77 144.46 164.83 148.756 167.345C147.893 169.595 144.856 171.084 144.79 174.05C150.373 174.518 149.687 177.143 148.193 180.13C141.43 193.654 134.5 207.117 128.618 220.898C124.565 230.391 125.523 240.203 122.992 249.735C120.223 260.162 118.147 270.697 115.775 281.165C114.12 288.463 114.856 296.203 114.164 303.743C113.061 315.76 112.356 327.798 111.32 339.819C111.118 342.164 113.089 343.942 113.486 345.967C114.245 349.832 115.377 353.701 114.313 357.747C111.97 366.659 109.624 376.361 113.261 384.599C120.762 401.586 114.068 418.878 118.317 435.741C118.9 438.052 118.397 440.517 117.65 442.929C114.682 440.132 114.696 436.824 113.623 433.773C112.774 431.36 112.828 428.829 109.002 427.486C106.338 426.551 107.55 424.272 107.363 422.55C106.78 417.152 108.383 410.855 105.167 406.582C101.357 401.519 101.492 396.716 101.352 391.709C101.211 386.653 100.762 381.775 99.3126 376.781C98.5206 374.051 97.4263 369.307 105.074 368.705C107.294 368.53 107.891 366.174 106.467 364.638C104.948 362.999 103.117 363.793 101.629 364.961C100.338 365.975 99.0783 367.009 97.3528 368.4C94.6652 364.057 95.9056 360.049 96.7904 356.067C96.9044 355.555 97.1892 354.93 97.6863 354.622C104.188 350.58 103.024 351.118 98.4232 345.343C93.1601 338.736 92.8275 330.87 96.4578 323.447C98.1825 319.92 100.447 316.783 95.8054 313.614C95.2018 313.202 94.7138 312.171 94.9739 311.651C98.9993 303.601 93.6572 295.179 96.8832 287.041C98.2835 283.508 97.0789 279.858 93.3246 276.629C89.2992 279.298 90.4876 283.289 89.835 286.493C87.7651 296.655 86.6543 306.927 85.2491 317.163C85.0532 318.59 84.6898 320.251 85.4146 321.465C91.635 331.885 88.88 342.657 88.4816 353.432C88.2534 359.602 91.1421 365.699 91.3452 372.035C91.5863 379.558 94.1717 386.985 92.4425 394.635C91.4389 399.073 97.1129 402.202 97.5025 406.735C97.9123 411.512 97.9776 416.465 100.56 421.103C101.63 423.022 100.646 424.966 98.0281 426.273C94.4906 428.038 94.7892 430.307 96.3733 432.62C99.977 433.154 99.2924 430.289 101.528 429.773C103.474 431.947 104.084 434.47 103.797 436.901C102.523 447.707 106.07 458.002 109.854 468.184C117.365 488.383 121.405 509.136 128.005 529.487C137.861 559.876 149.711 589.786 164.413 619.029C183.639 657.266 208.614 693.261 241.509 725.994C276.471 760.785 319.563 788.611 369.828 810.459C391.195 819.748 413.443 827.496 436.038 834.845C446.479 838.244 456.698 835.506 467.946 836.324C466.202 832.244 462.49 831.233 459.066 830.304C448.404 827.42 438.426 823.312 427.473 820.89C422.189 819.721 416.895 817.753 412.373 813.424C424.082 814.36 433.759 817.058 442.27 821.214C456.294 828.06 472.075 830.255 487.957 832.45C511.172 835.65 534.749 837.673 557.311 842.999C563.894 844.554 570.434 846.742 578.339 848.277C573.651 851.139 569.673 850.307 565.764 850.018C562.924 849.804 559.957 850.169 559.8 852.729C559.655 855.082 562.779 855.612 565.069 855.454C572.019 854.965 579.894 858.853 585.886 852.922C586.72 852.096 590.011 852.536 592.154 852.598C612.345 853.183 632.475 854.504 652.63 855.468C676.935 856.624 702.017 854.38 723.472 847.086C753.033 837.026 784.286 831.528 814.376 823.161C861.536 810.039 904.613 791.515 946.569 771.223C954.452 767.404 961.38 762.484 969.227 758.624C986.097 750.319 1001.31 740.417 1017.3 731.272C1022.63 728.224 1027.04 724.26 1031.74 720.62C1034.97 718.102 1038.86 716.079 1037.66 711.496C1036.91 708.613 1048.8 699.681 1052.95 699.076C1057.34 698.436 1059.05 695.848 1060.94 693.351C1063.42 690.048 1065.45 686.497 1068.45 683.49C1070.33 681.618 1072.19 678.026 1077.37 681.247C1079.47 682.547 1081.31 679.926 1082.95 678.721C1086.99 675.776 1088.62 671.29 1093.62 668.806C1096.07 670.946 1093.04 672.384 1093.25 674.868C1110 661.367 1115.82 642.816 1134.22 630.159C1135.89 633.374 1133.5 635.869 1133.95 638.45C1137.79 639.173 1137.82 635.569 1140.66 635.182C1143.03 636.645 1139.72 638.68 1141.68 640.275C1144.75 641.009 1145.19 638.983 1145.84 637.633C1151.97 624.721 1159.63 612.194 1163.2 598.635C1163.9 596.001 1164.12 593.156 1166.41 590.927C1169.01 588.386 1168.81 585.745 1166.7 583.36C1165.04 581.477 1164.59 579.65 1165.61 577.758C1170.34 568.929 1169.42 559.32 1172.53 550.27C1172.88 549.257 1173.19 547.758 1172.48 547.098C1165.39 540.415 1170.66 533.45 1172.5 527.05C1174.22 521.129 1175.44 515.016 1174.83 509.396C1173.52 497.435 1176.71 485.876 1179.41 474.501C1181.29 466.647 1185.2 458.958 1184.46 450.844C1183.77 443.324 1181.35 435.904 1181.52 428.305C1181.67 420.999 1183.16 413.796 1179.42 406.49C1176.54 400.865 1180.17 394.714 1180.51 388.78C1180.78 383.883 1179.49 379.122 1179.84 374.277C1179.96 372.674 1179 371.181 1176.29 370.542C1172.81 375.433 1179.14 380.502 1175.41 385.292C1170.47 379.051 1168.02 354.576 1172.39 350.722C1177.62 356.019 1181.95 360.935 1183.15 367.955C1184.36 375.073 1185.94 382.342 1189.11 389.364C1194.01 400.195 1194.22 411.621 1193.91 422.988C1193.75 429.07 1194.63 435.165 1192.66 441.215C1191.65 444.326 1196.66 445.84 1197.05 448.963C1197.69 454.03 1198.22 458.997 1195.7 464.008C1201.21 466.319 1204.77 466.127 1205.39 461.016C1205.88 456.92 1206.18 452.81 1206.65 447.884C1209.72 450.443 1208.33 453.248 1210.38 455.83C1212.08 449.449 1212.26 443.478 1211.8 437.527C1211.04 427.808 1209.64 418.116 1209.03 408.393C1208.62 402.062 1207.46 395.577 1214.46 390.176C1216.58 388.537 1214.76 385.289 1214.41 382.786C1213 372.688 1209.5 362.921 1206.12 353.132C1200.88 337.935 1197.1 322.434 1189.14 307.795C1186.51 302.954 1183.13 298.322 1181.55 293.164C1181.3 292.323 1180.72 291.082 1179.9 290.861C1170.17 288.251 1168.81 281.248 1166.15 275.4C1161.06 264.168 1153.28 254.117 1144.84 244.226C1139.52 237.986 1135.58 231.157 1130.4 224.819C1127.29 221.017 1126.74 216.184 1125.41 211.693C1123.33 204.724 1118.35 198.283 1112.78 192.46C1104.99 184.345 1095.21 177.427 1087.79 169.006C1081.53 161.891 1076.15 154.397 1066.25 149.028C1056.46 143.72 1052.65 134.323 1045.55 127.052C1039.74 121.114 1031.6 117.154 1024.91 111.864C1026.92 119.536 1038.18 122.148 1041.03 129.34C1038.35 130.144 1037.67 128.452 1036.51 127.484C1030.52 122.513 1024.44 117.695 1016.73 114.085C1009.41 110.657 1005.65 104.644 1000.02 99.9705C996.857 97.3413 1001.08 93.9606 997.822 90.8084C989.699 82.9806 978.765 77.6918 969.135 71.2291C953.864 60.986 935.249 54.6651 918.744 45.9228C915.529 44.2204 911.848 44.334 908.376 43.8385C889.72 41.1756 871.432 36.9658 851.491 36.0409C858.808 41.263 867.639 42.5896 876.092 44.0601C879.711 44.6897 883.056 45.3496 886.007 46.8813C891.972 49.9785 898.187 52.6972 904.698 55.1193C908.961 56.7047 912.404 58.8681 914.568 62.5762C917.081 66.879 923.625 68.5428 928.982 70.2988C939.815 73.8481 948.664 79.5105 957.503 84.9293C971.074 93.2539 984.563 101.659 998.272 109.874C1010.24 117.045 1022.64 124.129 1030.71 134.106C1034.6 138.937 1041.6 140.595 1045.96 144.589C1054.95 152.832 1063.59 161.302 1073.65 168.847C1080.39 173.891 1084.26 180.421 1089.96 185.972C1092.51 188.442 1090.48 190.828 1089.46 192.27C1087.18 195.498 1089.79 197.009 1091.81 198.9C1094.38 201.311 1096.93 199.43 1100.22 198.289C1109.26 208.74 1116.84 219.685 1123.64 231C1113.76 225.966 1114.01 215.278 1102.3 209.984C1101.07 216.296 1108.36 219.83 1107.49 224.884C1106.29 226.173 1104.15 224.119 1102.9 225.677C1102.74 227.97 1105.37 228.913 1107.01 230.237C1109.94 231.197 1108.99 227.793 1112.51 227.941C1123.54 249.955 1140.05 270.5 1143.85 294.478C1138.06 290.931 1139.11 285.457 1136.46 281.032C1131.05 272.028 1122.2 264.567 1116.63 255.552C1112.21 248.4 1106.42 241.626 1100.01 235.237C1098.06 233.286 1096.45 231.24 1096.89 228.307C1097.27 225.774 1095.74 223.735 1091.4 222.365C1084.51 220.193 1080.89 215.23 1078.48 209.894C1077.37 207.46 1077.49 203.791 1071.56 204.555C1070.86 204.644 1069.74 203.497 1069.02 202.801C1058.91 192.939 1047.95 183.549 1039.21 172.92C1037.17 170.446 1035.65 167.866 1034.68 165.153C1037.71 162.909 1040.59 165.382 1043.37 165.167C1044.33 163.928 1044.1 162.694 1042.99 162.038C1031.89 155.454 1021.27 148.498 1012.28 140.24C1011.89 139.873 1010.98 139.814 1009.58 139.311C1008.52 138.771 1008.17 138.543 1007.81 138.325C1000.85 129.199 993.457 119.811 982.541 113.543C973.233 108.196 964.927 101.952 955.169 96.9676C942.627 90.5662 930.37 83.8902 916.965 78.5141C913.868 77.2721 911.422 75.8408 911.161 72.8283C910.689 67.3799 905.065 63.6992 898.089 64.5594C895.199 64.9151 893.511 63.9538 891.485 63.0985C880.743 58.5646 869.652 54.5654 858.344 50.8964C856.143 50.1828 853.994 49.2388 851.321 49.9379C850.913 51.6746 854.335 51.5439 854.06 53.9626C847.466 52.5809 840.585 51.8611 834.592 49.7369C820.866 44.8727 805.434 45.0331 791.601 41.0889C766.554 33.947 740.514 34.8085 714.586 34.5553C707.671 34.4879 700.724 35.5448 693.813 36.2164C688.051 36.7765 682.326 37.5754 676.847 35.293C676.241 35.0404 675.42 34.854 674.759 34.9317C660.896 36.5646 646.856 34.4149 632.792 37.6951C620.084 40.6588 605.786 40.0732 593.463 44.3333C570.717 52.1955 545.63 54.7243 522.889 62.4304C498.227 70.7874 474.175 80.0245 451.071 90.6109C448.659 91.716 445.738 92.5576 447.069 95.5398C447.715 96.9883 445.874 97.7968 444.499 98.5C432.943 104.412 421.433 110.344 410.553 116.981C406.599 119.393 401.577 121.722 395.395 120.06C399.264 113.954 402.978 108.453 409.375 103.863C405.52 104.87 401.666 105.877 398.288 106.76C395.499 105.969 397.733 104.094 395.028 102.894C387.83 105.883 380.035 108.726 375.363 114.915C368.482 124.03 360.151 132.45 352.45 141.151C334.988 160.883 308.501 174.39 290.918 194.042C271.17 216.114 254.414 239.157 241.935 263.981C240.752 266.333 240.839 266.358 237.012 269.186C240.064 253.64 248.395 240.08 255.58 225.67C251.988 226.109 252.482 228.68 250.298 229.524C248.318 230.484 248.66 227.357 245.835 228.348C237.214 245.52 227.537 262.889 222.051 282.294C227.197 281.341 227.948 278.651 230.227 277.242C232.58 275.787 234.024 273.468 237.76 273.395C240.888 275.47 240.336 277.979 239.263 280.73C234.734 292.348 229.623 303.881 226.185 315.682C223.782 323.926 224.564 332.576 224.873 341.065C225.083 346.849 225.412 352.632 225.688 358.416C225.731 359.32 225.375 360.378 225.876 361.104C233.895 372.732 226.08 384.48 226.17 396.149C226.244 405.709 224.205 415.515 226.167 424.838C229.229 439.397 231.148 454.158 236.236 468.458C237.247 471.3 238.314 474.494 243.142 475.538C245.684 476.088 245.641 477.956 246.068 479.552C247.249 483.977 248.527 488.387 249.754 492.806C250.592 495.824 253.008 498.629 248.651 501.705C246.131 503.484 247.926 507.041 249.792 508.772C253.765 512.46 254.774 516.932 257.202 521.004C260.944 527.278 263.271 533.653 270.678 538.934C277.34 543.685 280.518 551.23 284.999 557.634C296.786 574.479 308.907 591.145 326.465 605.169C328.572 606.852 327.765 614.115 325.269 615.04C320.853 616.674 318.946 613.862 316.464 611.919C310.157 606.98 302.888 602.705 298.091 596.725C297.752 596.302 296.447 596.313 295.69 596.144C292.746 598.562 295.476 600.051 296.796 601.535C312.755 619.49 330.842 636.179 350.511 651.92C352.545 653.551 355.486 654.652 354.399 657.748C353.812 659.413 356.709 660.273 358.408 661.223C377.95 672.157 398.247 682.341 417.735 693.268C431.606 701.044 447.779 705.84 461.122 713.464C476.904 722.485 495.631 723.338 512.655 728.513C516.689 729.737 520.926 730.219 522.737 733.818C523.277 734.884 524.815 736.178 526.198 736.433C537.966 738.559 549.744 740.809 562.125 740.073C554.543 738.07 546.081 738.132 539.283 733.715C540.586 732.125 542.579 730.309 540.523 727.563C562.93 727.508 584.128 724.26 605.638 725.368C611.96 725.698 615.918 729.545 621.284 731.348C623.5 732.091 625.437 733.219 627.879 732.827C635.817 731.568 643.63 732.153 651.603 732.854C657.194 733.35 662.997 732.483 668.511 732.235C670.034 734.306 666.289 735.208 667.657 737.458C700.152 740.637 729.8 731.705 759.841 724.136C751.761 721.583 744.86 726.785 736.236 725.96C738.789 723.049 742.71 723.076 745.736 722.189C753.615 719.87 760.784 717.544 766.25 711.881C769.756 708.255 776.57 705.186 784.139 707.814C784.569 707.966 785.151 708.2 785.508 708.09C796.989 704.745 810.231 705.764 820.761 700.115C821.219 699.874 821.249 699.179 821.438 698.78C819.719 696.908 817.095 699.358 815.109 697.589C816.818 694.334 821.569 693.722 824.787 691.816C834.069 686.304 843.515 680.992 855.018 678.185C858.24 677.4 859.926 675.019 862.253 673.313C869.094 668.297 874.784 661.491 886.31 661.705C887.239 661.718 888.199 660.769 888.817 660.445C889.358 658.471 885.694 658.945 886.695 656.544C899.178 650.399 910.589 642.321 922.9 635.087C926.814 632.784 933.76 633.627 935.8 628.934C937.73 624.489 942.857 621.373 947.653 620.867C964.78 619.06 970.652 608.306 978.737 599.802C987.935 590.121 997.178 580.383 1005.03 569.958C1011.82 560.927 1016.26 551.173 1021.97 541.816C1022.66 540.688 1023.61 539.17 1023.14 538.199C1018.73 529.345 1026.15 522.242 1029.34 514.599C1031.86 508.521 1033.2 502.359 1034.48 496.117C1037.59 481.14 1038.19 465.953 1045.38 451.338C1049.38 443.218 1050.5 433.912 1045.9 424.891C1043.33 419.886 1042.63 414.26 1043.85 408.841C1045.27 402.489 1045.54 396.061 1041.29 390.519C1034.09 381.125 1035.61 370.992 1034.93 360.975C1034.54 355.197 1031.97 349.727 1030.11 344.167C1029.82 343.306 1028.84 342.64 1026.46 342.858C1024.33 348.918 1031.86 354.46 1029.53 360.726C1028.78 360.438 1028.06 360.321 1028.01 360.117C1025.44 348.965 1016.24 339.198 1015.93 327.554C1015.89 325.7 1015.36 323.541 1017.03 322.359C1021.8 318.95 1020.33 315.202 1019.09 311.297C1012.89 291.881 1000.54 274.283 989.414 256.389C986.235 251.272 978.857 247.601 973.325 243.323C952.348 227.091 931.334 210.887 910.349 194.659C908.008 192.848 906.054 190.912 904.582 188.523C902.577 185.269 899.082 183.608 893.532 186.477C898.187 192.272 904.883 196.451 911.048 200.78C916.39 204.528 921.852 208.222 928.339 211.226C933.861 213.782 937.5 218.999 941.111 223.429C951.595 236.288 965.929 247.339 973.224 261.695C974.667 264.529 975.668 267.01 974.658 270.416C973.528 274.234 977.782 277.797 980.41 281.193C985.867 288.248 989.304 295.884 992.722 303.559C996.976 313.095 1001.72 322.495 1006.62 331.864C1011.24 340.67 1016.46 349.505 1017.03 359.171C1017.43 365.597 1020.41 371.243 1023.31 377.209C1026.88 384.538 1027.47 392.677 1029.96 400.394C1033.8 412.316 1034.12 424.712 1032.56 436.647C1031.38 445.704 1033.61 454.691 1031.49 463.543C1029.71 470.903 1026.51 478.091 1024.05 485.283C1020.77 494.803 1014.09 503.248 1011.34 512.807C1009.9 517.798 1007.41 522.76 1000.46 525.695C999.025 522.201 1001.29 519.017 1002.09 515.845C1003.93 508.584 1006.47 501.421 1008.7 494.217C1008.92 493.514 1008.74 492.602 1009.27 492.111C1020.25 482.025 1017.2 469.864 1017.65 458.387C1017.81 454.166 1022.51 452.157 1022.9 448.125C1023.53 441.478 1022.86 434.788 1023.88 427.475C1027.32 429.68 1024.42 433.894 1029.9 434.655C1031.15 431.276 1031.71 428.596 1028.78 424.858C1024.88 419.892 1022.01 413.904 1021.42 408.196C1020.66 400.957 1018.62 393.913 1017.61 386.741C1017.24 384.095 1016.86 381.237 1012.38 380.278C1011.6 380.113 1010.76 379.372 1010.49 378.762C1006.22 369.123 993.972 366.076 984.012 361.531C977.359 358.494 975.292 354.043 972.93 349.435C968.777 341.341 965.028 333.131 961.243 324.934C959.616 321.401 957.393 317.928 959.451 313.946C960.361 312.183 958.679 310.43 957.898 308.75C947.497 286.441 931.206 266.622 911.252 248.516C887.898 227.323 863.799 206.525 833.137 190.959C817.359 182.949 799.076 178.826 780.3 176.988C756.897 174.697 733.964 170.399 710.432 168.623C699.069 167.767 688.453 170.474 677.424 170.551C649.54 170.745 622.342 175.098 594.898 177.963C590.274 178.445 586.012 179.75 582.041 181.469C572.161 185.745 561.79 188.535 550.461 190.229C540.145 191.772 527.541 194.188 522.015 200.095C510.225 212.696 490.824 217.295 477.321 227.65C475.305 229.196 473.181 231.338 469.273 229.566C467.688 228.847 466.266 230.319 464.947 231.058C448.743 240.12 435.092 250.869 424.551 263.911C404.611 288.584 392.756 315.251 387.9 343.789C384.363 364.575 380.462 385.398 381.054 406.355C382.161 445.651 391.641 483.601 418.017 518.28C421.82 523.28 425.991 528.308 431.189 532.489C441.269 540.596 444.18 551.561 452.689 560.115C450.652 561.706 448.757 559.237 446.883 560.652C446.159 563.095 448.924 564.397 450.621 565.996C466.047 580.53 486.071 590.903 506.644 600.827C519.766 607.157 531.434 615.362 546.062 619.719C578.413 629.351 611.973 633.273 646.748 629.806C650.852 629.396 654.62 628.702 656.865 625.449C659.076 622.243 663.807 622.483 667.752 622.375C698.236 621.55 725.835 614.243 753.216 604.313C771.099 597.828 787.948 590.695 803.575 581.757C818 573.506 831.35 564.317 842.882 553.781C858.605 539.416 867.74 522.426 875.699 505.161C890.857 472.281 891.836 438.515 882.392 404.847C878.215 389.961 873.7 374.923 865.961 360.585C862.906 354.926 856.308 352.067 852.403 347.138C839.144 330.404 822.35 315.689 802.844 302.787C797.938 299.542 792.786 296.471 786.161 294.923C789.282 302.427 797.674 307.442 801.848 314.407C798.571 315.48 797.296 313.759 795.717 312.863C762.526 294.029 725.217 282.952 684.291 277.214C673.662 275.724 664.297 275.861 654.245 277.048C651.348 277.39 647.981 278.121 645.98 275.625C646.004 273.957 647.68 273.866 648.937 273.44C650.816 272.801 653.866 272.693 653.165 270.495C652.389 268.066 649.487 268.006 646.655 268.405C643.815 268.805 640.869 268.94 638.141 269.593C634.644 270.431 634.208 271.971 637.857 273.811C631.661 276.363 625.182 276.112 619.237 275.36C612.683 274.531 608.279 276.079 604.263 279.503C601.741 281.655 598.38 282.625 594.628 282.744C578.843 283.247 568.583 290.153 568.429 301.459C568.34 307.93 564.523 311.89 557.615 314.929C554.511 316.295 551.598 317.906 548.659 319.374C542.188 314.901 539.868 314.958 533.408 319.091C510.247 333.908 494.668 352.392 488.126 374.577C484.627 386.442 481.6 398.6 483.496 410.998C483.9 413.632 485.278 417.285 478.316 416.419C476.453 416.188 475.483 417.692 475.253 419.005C474.584 422.807 474.665 426.515 478.241 429.628C481.77 429.352 481.627 425.834 485.104 425.83C485.448 425.994 486.144 426.155 486.17 426.363C488.096 441.451 498.381 454.88 500.451 470.205C502.137 482.687 508.714 494.701 522.932 503.739C538.554 513.668 552.592 524.949 570.454 532.884C587.651 540.523 605.956 545.896 625.404 549.16C627.463 549.505 629.729 549.393 631.859 549.22C637.338 548.777 641.075 550.619 643.906 553.931C650.009 561.07 650.023 561.044 660.206 558.717C661.329 558.46 662.617 558.349 663.774 558.467C676.203 559.737 687.377 556.287 698.765 553.461C703.888 552.189 709.289 552.653 714.576 553.045C725.615 553.862 736.214 553.376 745.756 548.369C750.286 545.992 755.226 544.055 759.96 541.893C793.195 526.711 811.71 504.084 818.826 475.904C820.17 470.586 822.842 465.561 823.602 460.106C824.745 451.913 823.493 443.902 821.73 435.91C821.075 432.94 821.09 429.199 815.214 428.463C814.398 428.361 813.667 427.141 813.195 426.34C805.488 413.285 793.003 402.975 778.87 393.812C768.504 387.092 758.149 380.303 746.733 374.53C744.379 373.341 741.762 372.245 740.54 369.846C741.396 367.91 744.233 370.171 745.449 368.391C745.868 366.978 744.042 366.22 742.556 365.372C733.719 360.336 724.117 356.419 713.602 353.62C709.437 352.512 705.758 354.196 701.563 353.461C683.346 350.27 665.005 350.759 646.789 353.812C643.866 354.302 640.424 354.4 640.419 357.833C640.417 359.563 638.372 360.105 636.197 360.013C633.284 359.89 635.551 357.869 633.562 356.62C619.757 362.02 606.736 369.524 590.42 371.519C591.378 363.505 600.996 359.926 607.761 354.565C600.759 352.678 600.758 352.678 599.203 349.847C593.286 351.153 590.046 355.988 582.516 357.343C584.686 353.32 586.111 350.54 591.076 349.152C596.891 347.525 600.964 343.7 605.86 341.109C614.973 336.285 625.248 332.111 635.854 329.579C653.633 325.336 672.102 324.736 690.605 327.927C696.594 328.959 702.023 331.141 707.153 333.138C720.401 338.294 735.12 341.717 745.791 350.325C748.804 352.756 753.434 354.054 757.291 355.91C760.953 357.674 764.393 359.384 765.32 363.113C766.234 366.791 771.401 367.623 775.004 369.148C784.83 373.308 790.737 380.24 796.651 386.778C803.836 394.719 805.643 404.781 812.554 413.055C814.207 415.034 813.992 417.89 814.628 420.311C821.327 418.358 823.664 415.273 819.833 410.147C817.945 407.62 819.66 406.06 823.825 406.434C821.971 399.039 817.554 393.213 813.76 387.185C810.914 382.661 808.092 378.057 812.443 373.027C813.71 371.563 811.742 370.325 810.717 369.176C800.152 357.335 786.274 347.873 771.813 338.824C770.075 337.736 767.231 337.4 766.92 334.825C770.61 334.033 773.247 336.019 776.271 336.69C804.231 342.887 824.491 356.662 837.975 375.219C843.44 382.741 846.6 391.732 850.388 400.159C856.352 413.422 857.961 427.267 859.211 441.12C859.723 446.789 855.576 451.943 855.585 457.614C855.588 459.818 853.422 462.148 858.757 462.849C862.009 463.277 860.399 465.824 859.989 467.462C856.824 480.118 850.718 492.093 845.271 504.253C841.238 513.255 834.724 520.732 826.314 527.553C823.172 530.1 820.955 533.003 819.668 536.44C817.31 542.736 812.224 548.693 805.486 551.825C790.509 558.787 784.791 573.459 766.296 577.188C763.908 575.402 768.993 574.316 766.862 572.365C759.866 573.809 755.693 579.465 747.769 580.439C747.369 576.74 752.592 575.763 753.296 572.456C747.96 572.626 744.649 575.408 741.051 577.364C723.1 587.116 703.597 594.54 682.408 599.331C660.514 604.28 638.161 606.634 615.242 604.575C614.524 604.51 613.404 604.714 613.132 604.434C605.976 597.054 594.834 600.012 585.528 598.675C546.922 593.128 514.046 580.063 489.038 557.234C471.347 541.084 451.438 526.117 438.995 506.962C431.36 495.209 427.862 482.75 426.368 469.904C425.114 459.12 424.355 448.305 423.315 437.507C423.018 434.425 422.18 431.569 419.23 429.045C415.925 426.219 415.95 422.309 414.999 418.814C411.809 407.095 411.128 395.152 410.511 383.259C409.964 372.73 413.56 362.829 422.293 354.3C425.218 351.442 426.089 348.076 427.23 344.779C439.063 310.575 461.027 280.724 494.826 255.873C498.231 253.369 500.843 250.25 503.734 247.366C519.732 231.404 541.285 221.404 566.391 215.836C583.701 211.998 600.884 207.526 618.785 205.424C657.379 200.895 695.709 202.36 733.684 209.163C743.42 210.908 753.251 212.437 763.601 215.645C759.558 217.69 756.561 216.146 753.882 215.853C697.139 209.645 644.123 219.168 592.991 236.917C581.581 240.878 570.689 245.499 560.168 250.643C554.082 253.618 546.886 254.796 540.609 257.612C521.197 266.32 505.494 277.906 492.32 291.513C490.039 293.87 488.063 295.182 484.726 292.932C482.613 295.092 483.469 297.086 483.527 299.041C483.743 306.359 477.083 311.203 472.046 316.611C471.341 317.368 470.096 317.547 468.807 317.046C464.948 315.543 465.016 318.328 464.163 319.673C463.214 321.169 462.921 323.002 465.686 323.774C467.92 324.399 470.532 325.077 472.26 323.134C474.527 320.585 476.612 317.937 478.604 315.261C480.811 312.294 481.742 308.655 488.196 308.89C490.845 308.987 491.878 306.312 493.124 304.554C505.094 287.668 522.179 274.337 544.254 264.888C551.958 261.591 557.814 256.426 566.803 254.359C592.074 248.548 617.15 242.293 643.602 240.115C654.368 239.228 665.186 236.973 675.949 238.463C684.875 239.699 692.554 237.638 700.966 236.485C718.618 234.064 736.64 232.578 754.807 233.981C774.072 235.468 793.016 237.857 811.229 242.982C813.612 243.652 816.319 244.346 819.348 241.855C812.26 235.854 801.029 235.258 792.765 230.632C794.216 228.864 795.54 227.249 797.273 225.136C810.267 228.796 822.057 234.407 834.215 239.452C862.339 251.122 880.814 269.664 898.822 288.921C917.871 309.291 926.134 332.547 934.164 355.936C935.919 361.055 936.48 365.875 942.351 369.613C944.887 371.227 945.87 374.281 947.331 376.757C949.316 380.133 949.748 383.999 954.939 386.184C956.648 386.904 957.181 389.677 957.567 391.589C961.757 412.165 964.091 432.854 963.466 453.684C963.273 460.002 964.302 466.739 961.757 472.547C952.982 492.604 954.131 514.435 941.736 533.763C940.449 535.771 939.852 538.251 935.717 539.296C936.792 525.953 944.841 513.969 944.419 500.764C937.169 519.964 930.122 539.185 917.115 556.748C913.707 555.995 914.812 554.05 914.837 552.633C915.089 538.28 911.273 524.355 907.57 510.372C905.479 502.48 907.846 494.498 910.994 487.009C916.816 473.158 921.439 458.135 916.631 444.923C909.393 425.049 913.087 404.166 903.326 384.877C902.078 382.408 902.02 379.582 899.202 377.603C896.586 378.34 896.84 379.911 897.261 381.252C900.965 393.049 902.652 405.037 904.677 417.048C907.59 434.32 909.377 451.491 907.083 468.798C904.983 484.628 897.559 499.397 888.818 513.704C882.097 524.706 874.156 535.297 866.499 545.967C864.943 548.136 862.118 549.776 860.092 551.781C858.496 553.359 856.694 555.08 859.949 556.863C862.919 558.489 864.413 556.8 865.811 555.378C873.685 547.374 880.286 538.686 888.023 530.676C895.154 523.293 895.7 514.036 902.713 506.409C905.417 508.843 903.662 511.059 902.425 512.558C898.683 517.093 899.998 521.89 900.192 526.653C900.234 527.709 900.249 529.284 901.102 529.724C908.947 533.777 905.002 538.485 902.856 543.217C899.353 550.939 894.97 558.077 887.928 564.621C881.883 570.239 878.97 577.591 876.414 584.717C876.107 585.574 876.072 586.617 875.38 587.248C862.088 599.362 854.698 614.79 837.83 624.879C831.862 628.448 826.485 632.698 818.803 634.907C816.972 632.777 815.327 630.865 813.322 628.531C822.317 620.319 835.426 614.665 842.048 604.523C827.045 611.338 811.546 617.522 798.842 627.258C803.685 629.934 806.457 626.181 810.163 627.606C808.448 631.386 803.645 632.615 799.966 634.627C796.31 636.626 791.997 637.859 793.097 642.479C793.71 645.053 790.023 646.484 787.328 647.537C782.371 649.484 777.653 651.596 771.732 652.278C764.932 653.062 758.858 655.759 752.79 658.56C738.712 665.063 723.063 669.838 706.701 670.609C690.841 671.359 675.839 676.114 659.824 675.178C658.39 675.095 656.639 675.618 655.535 675.171C642.192 669.755 629.249 674.944 616.14 675.818C604.334 676.595 592.249 677.29 580.724 675.735C568.253 674.056 555.61 673.746 543.214 671.889C528.211 669.638 513.493 666.459 500.071 661.106C489.074 656.716 478.706 651.273 469.295 644.991C468.755 644.633 468.267 644.041 467.654 643.952C453.88 642.011 450.202 631.26 439.968 626.21C429.707 621.146 419.386 616.188 409.909 610.207C405.368 607.34 402.104 603.988 398.345 600.761C387.373 591.343 375.956 582.215 364.898 572.851C352.436 562.297 342.954 550.455 337.792 536.785C335.987 532.005 334.4 527.43 329.29 523.4C325.093 520.091 322.195 514.812 321.642 510.209C320.856 503.681 317.377 498.037 314.348 492.279C305.722 475.876 303.56 458.664 301.611 441.375C299.003 418.224 300.005 395.09 303.184 372.047C308.82 331.199 321.41 291.737 344.068 254.05C355.716 234.676 368.817 216.093 384.588 198.501C392.427 189.757 400.556 181.039 412.674 175.411C420.63 171.716 422.757 165.183 428.345 160.529C436.788 153.495 445.498 146.854 457.941 142.916C467.423 139.916 474.557 133.163 484.644 130.19C487.729 129.28 490.502 127.759 495.468 128.532C486.554 134.405 474.255 135.697 467.748 143.343C471.959 144.584 473.881 142.778 475.886 141.783C488.198 135.674 501.347 130.694 514.481 125.721C520.238 123.541 525.48 120.204 533.228 121.984C536.258 122.681 540.548 120.622 544.138 119.574C557.407 115.702 570.455 111.599 582.534 105.722C594.114 100.087 608.082 99.6051 621.227 97.5016C645.087 93.684 669.215 90.8036 693.584 90.463C729.448 89.9607 763.918 96.3084 797.752 104.612C850.445 117.545 898.66 137.006 940.468 164.151C967.362 181.613 988.358 203.386 1005.9 226.659C1012.06 234.835 1023.18 239.32 1029.29 247.409C1028.44 239.95 1022.4 233.835 1020.79 226.318C1024.85 227.055 1025.64 229.131 1026.86 230.795C1044.54 255.074 1062.48 279.254 1078.52 304.179C1085.14 314.464 1092.22 324.621 1097.9 335.194C1102.09 342.995 1102.62 351.689 1106.85 359.648C1100.81 355.943 1102.15 349.638 1096.96 345.65C1092.64 347.838 1097.47 351.127 1094.25 353.448C1090.93 351.412 1090.6 348.196 1089.11 345.55C1085.64 339.39 1082.8 333.036 1079.44 326.841C1075.27 319.137 1066.91 313.39 1062.08 305.883C1052.36 290.78 1038.69 277.28 1029.67 261.867C1029.38 261.384 1028.86 260.978 1028.9 261.013C1025.75 260.062 1025.53 262.918 1022.69 262.271C1018.11 257.708 1013.83 253.075 1012.51 246.449C1011.16 239.668 1007.34 232.968 1002.2 226.917C996.498 220.195 990.802 213.483 983.92 207.395C982.348 206.006 981.034 203.494 977.644 205.151C974.207 206.831 975.779 208.914 977.515 210.764C988.541 222.467 997.638 235.051 1006.92 247.522C1018.06 262.504 1028.31 277.858 1039.07 292.999C1044.84 301.12 1050.37 309.321 1058.51 316.414C1062.94 320.269 1063.8 325.663 1066.09 330.393C1078.68 356.429 1092.33 382.193 1099.19 409.618C1104.54 431.01 1107.6 452.503 1106.87 474.233C1106.5 485.467 1100.03 495.882 1098.56 506.243C1095.68 508.04 1094.03 505.768 1091.98 506.723C1088.35 509.765 1090.08 513.901 1088.64 517.489C1084.77 527.154 1081.82 536.995 1078.95 546.869C1077.13 553.13 1074.75 560 1068.54 565.308C1065.26 568.116 1064.98 571.938 1063.55 575.362C1057.11 590.73 1045.97 603.962 1031.05 615.477C1024.26 620.718 1020.31 627.335 1015.45 633.523C1010.56 639.769 1005.11 645.706 997.427 650.323C994.514 652.078 993.227 654.748 991.822 657.218C985.785 667.808 975.567 675.48 963.806 682.781C955.546 687.908 947.616 693.516 939.393 698.786C935.359 701.374 931.004 703.569 926.308 704.938C923.469 703.665 926.354 702.041 925.096 700.734C921.907 699.915 919.527 701.388 917.318 702.633C905.578 709.259 892.887 714.84 880.773 721.047C868.978 727.095 858.264 733.549 848.61 741.525C834.178 753.443 814.208 759.057 794.778 764.989C794.334 765.127 793.785 765.106 793.391 765.292C782.059 770.535 768.73 772.193 756.97 776.652C752.9 778.2 748.703 779.625 746.589 783.058C745.642 784.6 743.386 785.164 741.359 785.79C726.972 790.27 711.398 791.302 696.549 794.44C695.431 794.68 693.798 794.887 693.016 794.467C685.701 790.552 678.638 793.655 671.514 794.742C668.114 795.265 665.362 796.132 663.948 799.029C662.756 801.465 659.561 802.614 655.999 803.192C633.475 806.888 610.592 808.952 587.74 807.17C578.207 806.419 569.274 806.055 559.64 806.268C541.592 806.66 523.065 804.569 505.4 801.424C494.133 799.415 482.635 797.116 471.576 794.041C465.987 792.492 461.89 789.499 457.353 787.063C448.993 782.584 438.065 783.423 429.976 778.792C427.578 777.423 424.098 777.127 422.291 774.271C442.21 776.577 459.642 783.96 478.765 786.981C476.634 782.412 471.074 781.785 466.821 780.87C449.645 777.182 432.934 772.551 417.052 766.592C407.655 763.069 398.8 758.603 389.363 755.005C388.29 754.592 387.34 753.862 386.218 753.683C359.097 749.417 342.828 733.109 322.839 721.088C318.856 718.693 315.886 715.205 310.853 713.188C307.073 711.675 304.232 709.528 305.304 704.911C306.165 701.202 300.266 698.291 296.539 695.511C287.491 688.768 285.793 678.976 277.31 672.012C277.832 671.703 278.354 671.386 278.876 671.077C281.59 672.322 284.304 673.568 288.197 675.357C285.222 667.595 279.938 661.567 273.283 657.143C260.28 648.514 253.834 637.163 247.307 625.85C244.496 620.977 240.669 616.215 239.923 610.651C239.725 609.174 238.044 607.733 235.109 607.278C231.662 609.703 232.729 612.745 233.807 615.598C235.461 619.975 237.991 624.17 241.831 627.672C248.656 633.896 251.893 641.612 258.67 648.603C254.987 648.706 253.732 647.138 252.377 645.892C241.175 635.582 232.888 623.824 225.353 611.992C217.948 600.364 212.989 587.901 216.873 574.381C218.188 569.802 213.254 565.514 211.095 561.234C202.692 544.578 198.273 527.2 193.042 509.977C188.502 495.028 185.046 479.896 180.806 464.893C179.078 458.776 180.491 452.625 179.547 446.525C179.381 445.457 180.022 444.036 179.31 443.339C168.489 432.737 167.216 419.519 162.104 407.433C154.858 390.299 152.376 372.395 152.9 354.458C153.158 345.607 152.498 336.783 152.81 327.942C153.023 321.897 150.515 316.218 146.273 311.014C145.799 310.434 145.417 309.64 145.525 308.994C147.19 298.993 147.469 288.714 155.262 279.874C156.745 278.191 157.948 276.571 158.164 274.451C159.451 261.844 161.689 249.314 166.914 237.262C170.668 228.603 175.511 220.408 181.992 212.425C187.85 205.209 192.064 196.932 197.62 189.35C199.08 187.358 200.221 185.133 202.789 183.686C205.154 184.886 203.803 186.119 203.298 187.155C184.315 226.043 179.887 266.391 182.507 307.323C183.475 322.449 185.621 337.587 188.625 352.562C190.079 359.81 191.329 367.236 194.102 374.296C197.221 382.239 195.603 389.984 194.392 397.836C194.232 398.877 193.918 400.143 194.508 400.972C201.298 410.522 198.057 420.738 198.177 430.722C198.181 431.128 197.382 431.538 196.913 431.988C194.356 430.727 194.762 428.81 194.55 427.079C194.249 424.617 194.726 422.189 191.883 420.05C188.612 417.589 193.105 416.001 194.135 414.085C187.794 409.24 188.822 402.804 187.355 397.031C186.507 393.698 186.222 390.268 184.998 386.944C183.652 383.289 183.172 379.647 183.81 375.739C184.353 372.412 186.065 368.794 180.442 365.686C177.139 363.86 177.252 359.072 176.936 355.461C175.927 343.927 175.075 332.385 174.124 320.848C174.041 319.839 174.486 318.604 172.693 318.03C170.495 318.517 170.716 319.951 170.742 321.12C170.953 330.504 170.833 339.876 171.455 349.278C172.17 360.088 178.347 370.601 176.751 381.016C175.229 390.96 178.292 400.153 178.804 409.692C178.924 411.938 177.976 414.416 176.637 416.464C173.767 420.854 174.636 424.754 178.124 428.842C179.066 427.831 179.849 426.989 180.818 425.949C181.347 426.453 182.008 426.797 182.1 427.212C186.626 447.66 192.894 467.85 196.997 488.389C200.367 505.26 206.737 521.827 212.816 538.381C219.214 555.801 229.688 572.207 234.471 589.973C235.22 592.755 237.186 595.361 238.696 598.015C239.498 599.424 240.698 600.669 243.108 599.817C245.498 598.971 244.921 597.481 244.146 596.088C242.847 593.752 241.315 591.482 240.166 589.108C239.04 586.783 237.346 584.337 240.767 582.157C242.548 581.023 242.032 579.597 241.495 578.153C239.999 574.122 237.988 570.333 234.608 566.898C228.023 560.209 224.958 552.638 225.284 543.451C229.802 546.859 229.574 551.219 232.671 554.235C238.824 552 240.097 548.629 235.542 544.061C231.227 539.734 230.662 534.732 229.268 529.821C228.186 526.012 232.045 523.611 233.374 520.672C236.556 520.605 236.701 522.963 240.115 524.174C236.845 517.546 232.914 512.163 231.829 506.145C227.928 484.511 217.778 463.746 215.097 442.013C213.127 426.044 207.604 410.448 207.162 394.343C207.077 391.251 204.418 388.247 203.658 385.106C202.207 379.101 202.693 373.264 208.099 367.42C212.427 372.373 205.731 379.232 214.911 382.367C218.522 378.497 220.174 373.488 219.647 370.534C216.872 354.988 222.688 339.313 218.627 322.484C212.559 326.312 214.588 331.909 209.197 333.962C213.977 340.622 213.667 341.089 203.084 343.627C201.312 340.334 201.815 336.855 201.876 333.483C202.248 313.048 204.34 292.703 208.919 272.548C214.254 249.067 215.82 225.167 223.282 201.921C231.218 177.203 242.35 153.397 258.153 130.855C259.685 128.671 261.523 126.562 259.742 123.747C258.357 121.56 261.148 120.049 262.728 118.593C278.303 104.245 295.537 91.1022 314.2 78.993C346.752 57.8731 380.591 38.0963 418.041 21.9624C425.645 18.6865 433.787 16.5014 441.738 13.9015C444.23 13.0867 447.421 12.8481 449.124 8.88696C429.862 12.7284 413.17 18.8576 396.357 24.5909C379.683 30.276 361.135 32.3919 345.624 40.3739C346.952 36.5481 350.805 35.0521 354.469 33.592C380.021 23.4129 405.393 12.9184 433.399 6.79058C435.117 6.41467 436.508 5.71391 437.445 4.63895C440.602 1.0185 445.445 -1.0059 450.146 -3.23473C456.324 -6.16461 463.051 -8.10079 468.349 -12.5394C473.225 -16.6238 482.016 -16.6676 489.17 -18.147C523.372 -25.2188 558.218 -29.8051 593.317 -33.6736C610.768 -35.597 628.101 -33.3232 645.598 -35.2301C664.814 -37.3244 684.474 -38.4063 704.052 -36.7034C707.27 -36.4235 710.838 -37.1629 714.513 -34.2803C688.315 -31.4585 662.606 -31.7929 637.485 -28.063C674.486 -28.0342 711.532 -30.8448 748.646 -26.7569C724.736 -19.0503 700.207 -12.7277 677.401 -3.18375C689.494 -2.85607 701.383 -2.44864 712.826 -5.52288C713.88 -5.8059 715.269 -6.52483 715.494 -7.22359C717.472 -13.36 723.887 -12.8305 729.935 -12.7026C741.978 -12.448 754.466 -14.575 765.964 -11.659C779.804 -8.14868 793.964 -8.95486 807.32 -10.1467C824.086 -11.6429 839.532 -7.33617 855.746 -7.45246C876.704 -7.60274 895.948 -2.08209 915.059 3.59607C915.951 3.86112 916.831 4.17599 917.646 4.55273C918.236 4.82542 918.71 5.23898 919.096 5.49578C920.575 8.41402 911.174 8.71679 918.616 12.9158C892.972 9.02857 870.901 0.524925 846.135 1.66346C874.757 6.62041 899.608 19.418 929.717 24.8895C927.08 18.6531 919.408 18.9155 915.727 14.4897C924.103 15.3322 930.296 18.0546 936.802 20.1071C940.458 21.2598 944.005 23.3613 947.653 19.6889C949.325 18.0038 952.266 19.1028 954.416 19.7758C964.688 22.9911 975.283 25.3279 983.074 32.3816C987.411 36.31 995.23 38.0674 1001.43 40.8597C1033.75 55.4014 1059.93 75.0935 1084.16 96.3766C1086.04 98.0369 1090.25 99.8941 1085.99 103.091C1084.97 103.861 1087.22 105.755 1088.66 106.592C1099.05 112.623 1106.17 121.176 1115.73 127.479C1129.84 136.781 1140.63 147.806 1151.93 158.689C1154.74 161.395 1157.26 164.272 1159.9 167.08C1164.28 171.744 1163.69 172.728 1155.55 173.759C1172.94 177.569 1178.23 189.081 1185.61 199.272C1193.44 210.089 1201.36 220.952 1206.92 232.492C1209.66 238.181 1211.29 244.297 1213.68 250.186C1215.01 253.47 1218.09 255.612 1219.6 258.635C1222.87 265.205 1224.69 271.857 1225.85 278.844C1227.61 289.493 1234.01 299.202 1240.3 308.762C1254.85 330.848 1260.65 354.92 1269.66 378.31C1276.31 395.574 1280.28 412.735 1279.19 430.525C1278.37 443.691 1278.37 457.135 1274.57 469.88C1270.51 483.452 1268.5 497.245 1264.4 510.773C1262.59 516.762 1261.88 522.936 1261.65 529.155C1272.66 514.437 1273.74 497.82 1278.36 480.635C1281 484.874 1279.72 488.108 1279.47 491.12C1277.64 513.888 1274.02 536.588 1264.39 558.228C1259.48 569.296 1253.04 579.948 1250.51 591.585C1248.83 599.316 1242.37 605.337 1237.26 611.861C1223.8 629.063 1214.04 647.619 1202.57 665.551C1195.96 675.866 1187.39 685.286 1178.18 694.376C1176.92 695.621 1175.78 697.163 1172.7 697.108C1171.15 694.211 1173.8 692.078 1175.4 689.903C1184.35 677.717 1194.89 666.205 1202.93 653.613C1206.77 647.619 1210.09 641.412 1215.21 635.904C1216.41 634.604 1216.9 632.996 1214.46 632.271C1211.89 631.511 1211.22 633.359 1210.48 634.612C1205.27 643.346 1198.81 651.5 1191.32 659.262C1187.25 663.487 1182.02 667.079 1178.93 671.868C1178.26 672.907 1176.43 674.331 1175.26 674.262C1167.45 673.801 1164.76 678.611 1160.51 681.845C1155.39 685.754 1151.5 690.11 1144.56 693.234C1137.59 696.378 1132.9 703.369 1130.25 709.769C1128.71 713.491 1134.69 713.773 1138.43 715.026C1136.25 718.453 1133.07 721.212 1129.5 723.551C1120.94 729.173 1113.07 735.442 1106.5 742.213C1092.84 756.277 1071.63 763.22 1055.15 774.519C1053.79 775.448 1051.98 776.508 1049.93 776.047C1046.01 775.173 1044.31 777.093 1042.26 778.944C1029.89 790.077 1013.63 797.674 996.002 802.188C988.247 804.176 980.667 806.041 973.482 809.014C968.024 811.271 964.348 813.796 968.612 818.771C969.457 819.769 969.503 821.145 970.082 822.796C977.423 821.757 983.139 818.633 988.725 815.716C996.223 811.794 1004.7 809.599 1012.7 806.585C1022.96 802.711 1032.04 797.082 1041.67 792.252C1043.79 791.185 1045.57 789.513 1050.6 789.946C1027.1 806.344 1000.7 817.429 973.812 828.012C976.633 832.161 971.203 833.297 968.547 835.292C965.341 837.701 961.307 839.49 958.651 843.24C964.817 842.724 969.384 840.742 973.959 838.664C1007.52 823.423 1036.42 803.66 1066.53 785.068C1076.4 778.971 1087.62 773.927 1096.55 767.294C1104.64 761.28 1112.31 754.764 1120.24 748.523C1142.06 731.368 1163.17 713.65 1186.05 697.335C1193.98 691.685 1201.14 684.997 1210.54 680.242C1212.85 682.678 1210.47 683.8 1209.42 684.969C1201.73 693.523 1193.46 701.8 1186.3 710.587C1182.75 714.95 1176.08 715.562 1172.08 719.395C1155.74 735.077 1138.45 750.181 1120.71 764.989C1096.01 785.591 1070.1 805.277 1040.79 822.218C1026.67 830.372 1011.97 837.935 996.471 844.678C984.636 849.818 974.612 857.181 961.969 861.523C956.106 863.532 950.759 866.257 943.619 865.273C939.466 864.709 935.469 866.677 932.253 868.376C917.715 876.083 900.405 878.23 884.028 882.138C874.985 884.292 866.773 887.223 858.663 890.884C845.584 896.788 830.436 898.832 815.904 901.832C782.403 908.754 748.175 912.993 713.957 917.404C702.746 918.849 691.695 921.78 680.288 923.129C674.119 923.865 667.968 924.952 661.942 922.392C659.141 921.202 655.795 921.704 652.677 921.532C646.909 921.223 641.474 921.03 637.464 916.709C634.698 913.729 629.241 914.486 625.363 915.917C614.027 920.115 601.809 919.406 589.892 919.702C583.333 919.867 577.141 921.285 570.588 921.374C553.222 921.594 536.351 920.624 519.479 916.702C509.634 914.404 499.077 912.126 487.772 915.332C481.538 917.094 473.962 914.073 467.459 912.497C458.445 910.309 449.214 909.215 440.05 907.922C432.682 906.883 425.9 904.873 420.464 901.481C411.026 895.598 399.494 893.43 388.687 890.003C371.855 884.671 354.41 880.686 338.963 872.698C331.215 868.693 320.407 868.211 311.771 864.317C291.82 855.316 274.024 844.21 256.156 833.166C233.752 819.321 213.476 803.819 193.921 787.779C191.655 785.921 186.889 783.946 192.397 780.96C194.758 780.822 195.804 782.219 197.186 783.148C218.967 797.736 242.003 811.429 262.102 827.214C279.214 840.653 300.611 848.435 320.861 857.903C329.895 862.128 341.031 862.41 350.443 866.443C359.635 870.379 369.122 873.757 376.964 879.283C385.89 885.579 397.81 887.237 408.884 890.162C426.587 894.848 444.333 899.417 462.728 902.382C465.04 902.761 467.382 903.029 470.892 903.504C468.506 894.476 456.587 898.061 451.408 893.981C451.337 892.99 452.308 892.673 453.235 892.708C475.298 893.416 497.449 893.01 518.894 898.488C526.971 900.552 535.943 900.71 544.539 901.55C550.253 902.107 556.135 902.004 560.259 905.864C561.636 907.151 563.904 907.178 565.575 906.339C569.971 904.123 574.852 904.729 579.622 904.646C622.586 903.944 665.471 902.1 708.223 898.901C730.994 897.201 753.663 894.696 776.337 892.336C784.469 891.483 791.379 889.054 798.062 884.788C806.681 879.283 818.445 877.521 829.431 875.505C836.075 874.28 841.708 871.335 848.385 870.276C850.526 869.938 852.64 868.576 852.436 865.362C841.721 866.064 832.358 872.216 821.394 869.546C819.312 867.358 824.027 867.358 823.578 865.424C809.904 866.119 797.513 870.358 784.615 873.083C780.742 873.902 777.481 875.01 773.042 873.138C768.553 871.246 763.115 873.413 758.206 874.074C738.46 876.75 719.173 880.659 700.686 886.652C689.999 890.12 679.076 892.446 667.032 891.249C655.592 890.114 643.827 891.861 632.525 890.87C620.485 889.818 608.56 890.561 596.673 890.478C583.471 890.396 570.162 891.077 556.886 891.242C551.743 891.304 546.836 890.347 541.794 890.072C521.032 888.916 500.009 889.735 479.662 885.421C475.561 884.554 471.058 884.45 467.968 881.836C468.91 879.193 473.013 880.783 474.609 878.553C469.724 874.741 463.703 872.643 457.163 870.276C441.688 864.681 424.041 864.385 409.051 857.835C401.029 854.325 391.902 852.233 383.269 849.509C381.911 849.082 380.537 848.827 378.802 849.632C379.712 853.486 386.895 852.66 388.379 857.532C378.393 854.263 369.447 851.435 360.609 848.428C339.413 841.224 319.441 832.533 301.571 821.241C297.307 818.544 293.194 815.255 286.275 816.872C284.642 817.257 281.85 815.654 279.992 814.574C264.733 805.731 249.681 796.717 234.934 787.366C221.72 778.992 208.337 770.831 196.273 761.514C179.778 748.77 164.676 735.215 150.553 720.916C145.089 715.39 136.161 711.537 129.883 705.86C132.116 716.161 142.839 723.352 146.528 733.563C142.701 733.143 141.8 730.935 140.353 729.331C96.8116 681.068 63.6884 629.01 39.0711 573.821C29.4052 552.151 25.7565 529.497 19.0037 507.354C17.8253 503.489 16.1422 499.557 16.1772 495.665C16.3782 473.302 8.41156 451.696 5.54211 429.614C4.3411 420.372 -1.51276 411.177 0.370074 401.916C4.75235 380.36 2.07175 358.759 3.13736 337.199C3.16123 336.716 3.62781 336.246 4.32205 334.974C5.97988 339.798 4.31594 344.823 10.5223 347.846C13.3945 345.201 11.4749 341.486 14.2478 338.545C20.2023 339.587 21.2382 343.837 20.8099 346.829C19.1449 358.462 21.9216 370.309 17.7009 381.788C17.4493 382.473 17.1963 383.22 17.3082 383.906C20.8447 405.576 21.5468 427.464 26.3628 449.038C27.7603 455.299 28.1399 461.55 24.5333 467.661C22.3168 471.417 24.582 475.201 26.503 478.61C29.259 483.502 30.8097 488.539 31.8702 493.729C32.4619 496.625 33.2575 499.42 29.8328 501.794C28.5667 502.672 28.6284 504.094 28.8965 505.397C34.8849 534.49 40.8557 563.589 53.3176 591.648C54.3418 593.953 54.4334 597.298 60.0596 596.632C62.2966 596.367 62.9791 598.372 63.3815 599.725C68.0436 615.409 80.5695 628.717 87.1078 643.835C87.9904 645.871 89.2933 647.874 90.8509 649.677C104.031 664.932 111.861 682.162 122.781 698.188C132.045 695.848 131.586 704.408 138.098 705.716C141.481 700.142 133.538 696.474 134.206 691.245C140.511 693.22 142.069 698.222 146.836 701.979C153.781 727.996 180.127 742.928 201.419 761.59C203.449 757.846 205.851 757.317 209.266 759.477C212.702 761.652 216.981 761.831 222.794 761.975C217.899 755.631 212.954 750.614 205.631 747.071C204.968 746.754 203.406 746.699 202.939 747.043C197.867 750.752 195.566 747.112 192.55 745.013C181.134 737.059 175.279 726.159 166.032 717.076C160.389 711.53 154.73 705.936 146.932 701.89ZM446.396 591.076C457.556 599.101 468.716 607.126 483.242 611.83C476.534 606.213 467.299 602.513 462.731 595.391C475.699 599.996 485.696 608.125 499.186 612.017C499.707 610.839 498.962 610.361 498.211 609.929C484.468 602.032 470.693 594.167 456.973 586.247C438.481 575.573 421.831 563.608 410.03 548.291C408.949 546.888 406.67 544.66 407.23 544.101C411.957 539.392 405.818 536.669 403.938 533.365C400.537 527.388 395.307 521.893 392.81 515.748C386.156 499.383 378.218 483.379 372.703 466.654C362.465 435.602 360.449 404.398 363.004 372.818C365.126 346.591 374.797 321.661 387.825 297.4C388.539 296.072 389.139 294.548 390.415 293.575C399.968 286.294 404.802 276.613 412.06 268.268C427.404 250.624 442.715 233.222 462.506 218.188C464.019 217.04 466.397 215.8 466.537 214.491C467.312 207.274 475.219 204.397 481.322 200.654C498.891 189.878 521.995 186.844 540.652 177.365C544.604 175.357 551.003 173.072 556.362 177.564C557.89 178.844 561.175 177.579 561.739 176.073C563.746 170.718 569.995 169.871 575.505 168.381C593.297 163.572 612.008 161.715 630.466 159.054C633.633 158.597 637.454 158.739 638.081 155.291C635.683 153.278 632.569 153.857 629.858 154.105C617.906 155.198 605.978 156.455 594.065 157.764C591.456 158.05 588.917 158.721 587 160.288C584.608 162.244 581.376 162.906 578.083 163.634C538.906 172.288 501.849 184.194 469.866 203.726C464.458 207.029 456.643 206.887 452.442 212.204C451.765 210.741 451.355 210.242 451.503 210.119C458.106 204.647 461.102 195.968 473.926 195.953C474.893 195.951 476.051 195.123 476.796 194.47C490.401 182.561 507.952 174.264 525.383 166.218C538.672 160.082 550.816 152.432 565.514 147.996C567.942 147.263 570.033 145.902 573.3 144.345C562.816 144.743 555.107 151.004 545.207 147.757C544.618 147.564 543.456 148.246 542.62 148.599C530.495 153.728 518.339 158.817 506.271 164.02C485.999 172.759 471.472 186.352 455.862 198.792C435.204 215.255 418.444 234.14 401.628 253.357C407.793 254.944 403.993 257.481 402.164 259.701C375.837 291.678 359.302 326.24 352.996 363.535C349.623 383.474 347.862 403.41 350.228 423.53C352.552 443.29 355.738 462.828 363.136 482.005C379.031 523.214 404.734 560.084 446.396 591.076ZM871.005 191.736C868.083 190.442 864.982 187.648 861.784 190.739C858.571 193.843 861.86 196.023 865.113 197.863C867.039 198.954 869.102 199.95 870.8 201.217C876.452 205.436 884.578 206.876 889.955 211.647C900.87 221.335 911.373 231.239 920.823 241.738C936.269 258.902 948.057 277.54 959.221 296.409C960.186 298.037 960.875 299.663 963.044 300.846C970.312 304.802 973.39 311.235 977.258 316.754C981.742 323.144 982.854 330.838 985.656 337.915C986.557 340.193 987.301 342.96 991.812 342.918C994.174 340.899 993.42 338.645 992.97 336.601C990.774 326.623 988.091 316.7 983.626 307.145C982.054 303.775 982.073 298.9 974.511 298.927C973.895 298.929 973.178 297.545 972.664 296.75C961.289 279.21 950.63 261.401 936.682 244.849C933.999 241.665 931.518 238.17 930.278 234.561C926.171 222.654 913.28 215.191 902.784 207.575C894.439 201.521 882.973 196.449 871.005 191.736ZM356.785 723.276C363.304 724.343 368.421 726.737 370.743 731.678C371.244 732.744 371.693 733.783 373.25 734.134C386.411 737.073 396.567 744.229 408.898 748.33C416.131 750.738 422.724 754.344 430.981 754.826C434.215 755.011 437.739 755.287 438.78 752.348C439.751 749.603 440.509 746.555 436.819 744.353C434.936 743.224 432.916 742.22 430.896 741.236C418.79 735.325 405.748 730.46 395.18 722.843C393.117 721.356 390.2 720.214 387.221 721.198C382.658 722.705 388.106 725.375 386.392 727.281C385.849 727.439 385.292 727.776 384.999 727.673C369.265 722.299 355.057 715.507 346.518 703.693C345.181 701.842 343.394 699.949 341.036 699.633C335.259 698.849 332.018 695.752 328.218 693.055C326.551 691.871 324.898 690.495 321.207 691.183C330.776 703.397 346.968 711.049 356.785 723.276ZM467.612 485.969C467.469 477.149 459.082 471.53 454.064 464.373C451.669 465.844 452.163 466.909 452.531 467.95C458.308 484.317 467.027 499.747 479.395 513.928C486.389 521.946 493.947 529.707 504.906 535.065C507.296 536.235 510.209 537.48 512.997 535.982C516.055 534.339 517.714 531.802 517.639 528.965C517.574 526.51 515.282 524.67 513.424 522.785C508.41 517.697 503.301 512.662 498.33 507.55C492.531 501.589 492.022 501.503 485.245 506.359C476.544 501.274 472.049 494.135 467.612 485.969ZM639.326 -0.264057C636.129 -1.20765 632.832 -1.42358 629.401 -1.32208C614.93 -0.893738 600.654 0.618782 586.431 2.60189C566.008 5.44975 546.685 11.3955 526.358 14.4633C505.27 17.6463 484.927 22.5975 465.021 28.6067C463.1 29.1867 460.187 29.5528 460.242 31.913C462.533 33.4929 464.455 32.2144 466.363 31.6667C495.239 23.3785 525.058 17.6594 555.337 13.1299C587.468 8.32306 619.83 4.72758 652.447 2.41053C655.618 2.18525 658.552 1.6499 660.745 -1.37376C653.52 -2.22625 647.13 -0.209217 639.326 -0.264057ZM742.856 625.794C751.201 620.746 762.96 619.252 768.936 611.441C728.353 627.644 685.114 636.832 639.425 640.228C649.984 640.67 659.591 644.447 670.082 643.938C693.439 642.816 715.507 638.003 736.714 630.787C739.292 629.909 742.231 629.113 742.856 625.794ZM1001.38 773.459C1007.45 770.322 1012.74 766.695 1015.92 761.156C1011.62 760.895 1009.33 762.677 1007.06 764.101C995.387 771.402 981.531 776.157 969.172 782.646C956.557 789.272 941.249 792.561 929.708 800.55C928.21 801.582 925.206 801.878 926.924 804.066C928.422 805.965 930.599 804.981 932.667 804.41C941.681 801.926 950.887 799.656 958.991 795.754C973.233 788.907 989.782 784.476 1001.38 773.459ZM606.321 223.901C607.518 223.609 608.598 223.253 608.197 222.07C607.199 221.247 606.037 221.538 604.846 221.664C592.438 222.976 581.501 227.236 570.506 231.333C564.469 233.583 558.55 236.02 552.68 238.508C548.403 240.322 543.542 238.405 538.922 240.637C525.702 247.023 512.896 253.743 501.618 261.963C497.125 265.237 492.655 268.667 489.886 273.959C494.759 273.025 496.76 270.659 499.106 268.79C505.868 263.404 514.175 259.952 523.258 257.339C525.249 256.766 527.187 255.963 528.915 255.025C552.573 242.188 576.718 230.041 606.321 223.901ZM303.906 99.9939C301.709 102.296 298.381 102.866 294.532 102.833C294.728 104.167 294.915 105.025 294.971 105.888C295.249 110.211 287.471 118.913 283.407 118.101C276.127 116.648 277.207 120.664 275.196 123.706C279.319 124.123 282.081 123.191 284.498 121.693C288.206 119.396 291.927 117.089 295.364 114.574C317.759 98.1924 339.219 81.0264 365.803 68.2042C367.711 67.2843 370.007 66.3539 370.586 64.1458C367.475 61.6053 365.02 63.6793 362.63 64.9082C342.204 75.41 325.045 88.987 303.906 99.9939ZM821.5 264.037C817.477 266.553 820.816 268 822.947 269.621C828.57 273.895 834.981 277.349 840.393 282.06C851.71 291.91 860.313 302.744 868.321 314.043C869.417 315.59 869.957 318.042 873.688 317.389C875.002 315.705 874.428 314.081 873.402 312.68C867.845 305.092 862.995 297.281 859.281 289.074C858.944 288.328 857.633 287.181 857.007 287.258C851.74 287.918 849.525 284.64 848.741 282.372C845.527 273.066 834.811 269.021 826.547 263.218C824.589 261.843 823.358 261.93 821.5 264.037ZM256.012 569.25C254.245 570.683 253.507 572.382 254.257 574.246C258.496 584.786 263.708 595.032 271 604.627C271.134 604.805 271.861 604.73 273.293 604.867C275.161 594.299 262.924 587.019 262.156 577.234C267.228 583.05 271.538 589.164 276.357 595.045C281.255 601.021 285.601 607.369 292.842 612.837C293.46 611.464 293.865 611.031 293.716 610.827C283.893 597.396 274.009 583.99 264.174 570.563C262.408 568.153 259.87 567.971 256.012 569.25ZM303.606 644.984C301.74 643.745 299.874 642.513 297.272 640.79C303.258 660.755 331.743 689.401 345.771 690.027C345.625 689.497 345.708 688.857 345.321 688.527C334.955 679.657 326.479 669.838 318.188 659.833C314.086 654.886 311.331 648.954 303.606 644.984ZM269.719 205.802C282.518 198.419 288.795 187.344 297.918 177.879C301.286 174.384 303.896 170.092 308.312 167.634C316.384 163.142 322.539 157.375 329.526 152.171C332.243 150.148 334.636 147.84 335.874 143.92C331.779 146.347 328.781 148.112 325.799 149.892C320.343 153.15 312.992 155.126 309.406 159.54C297.473 174.229 282.032 187.077 270.512 201.945C269.618 203.099 267.783 204.129 269.719 205.802ZM501.812 6.37593C495.361 8.37267 488.806 10.2027 482.493 12.4191C477.477 14.18 475.174 16.9881 479.003 21.3835C481.439 20.8807 484.352 20.8044 486.401 19.7699C498.083 13.8723 512.084 13.0181 524.859 9.53501C529.673 8.22239 534.975 7.88549 539.777 5.82772C537.144 3.6368 534.465 4.45585 531.904 4.57042C527.104 4.78504 522.101 5.62714 517.547 4.91165C512.215 4.07402 507.598 4.47408 501.812 6.37593ZM922.256 421.608C927.089 412.446 925.987 403.422 921.264 394.439C918.995 390.127 915.556 387.503 907.291 388.899C914.49 400.448 914.468 413.063 919.307 425.381C920.722 424.372 921.172 424.172 921.374 423.876C921.705 423.404 921.861 422.868 922.256 421.608ZM457.734 437.382C457.83 447.738 461.316 457.206 470.181 466.493C473.487 457.617 464.8 426.697 458.551 422.957C456.551 427.461 458.134 431.953 457.734 437.382ZM370.499 561.147C374.598 566.122 372.608 573.299 381.002 577.527C381.327 568.576 380.688 560.351 375.354 552.942C372.662 549.203 371.056 545.389 369.678 541.36C368.025 536.523 365.786 531.799 363.8 527.026C362.874 527.203 361.949 527.379 361.023 527.556C363.412 538.57 363.913 549.824 370.499 561.147ZM547.316 784.132C543.081 784.256 539.201 783.65 536.192 781.173C534.655 779.907 532.593 779.666 530.459 779.226C519.885 777.065 508.6 777.258 498.465 773.535C495.022 772.269 490.951 771.966 486.857 771.161C490.239 778.971 538.565 789.196 552.138 785.384C551.241 784.228 549.57 784.6 547.316 784.132ZM408.71 49.4108C418.679 45.8505 428.682 42.3446 438.586 38.6867C440.669 37.9174 444.645 37.5733 442.897 34.7982C441.474 32.5412 438.644 34.0269 436.54 34.6351C423.533 38.397 410.949 42.8724 398.508 47.568C393.563 49.4349 389.812 52.2561 386.807 57.057C395.462 55.7585 401.034 51.7806 408.71 49.4108ZM788.49 895.46C788.363 895.611 788.176 895.756 788.126 895.921C788.08 896.072 788.105 896.362 788.228 896.41C791.657 897.827 795.283 897.18 798.715 896.65C811.937 894.607 824.743 891.414 837.546 888.269C841.734 887.237 844.481 884.622 848.144 881.492C839.467 881.959 833.053 884.65 826.155 885.937C813.601 888.29 801.13 891.098 788.49 895.46ZM479.191 66.4682C469.324 70.2933 458.508 72.8015 449.546 77.7214C450.667 80.1731 452.651 81.1062 454.87 80.4745C469.975 76.1745 483.984 70.272 497.821 63.971C491.016 61.5716 485.851 64.8029 479.191 66.4682ZM83.8395 438.074C85.2951 449.282 79.0743 459.903 79.3117 471.023C79.3223 471.519 78.806 472.026 78.5187 472.522C78.0105 473.4 77.7749 474.402 78.7208 475.06C82.5861 477.751 81.6632 481.327 82.1271 484.66C82.3522 486.277 81.6824 488.27 85.7302 489.296C85.7302 469.765 85.7302 450.763 85.7302 430.843C83.0896 433.34 83.9349 435.365 83.8395 438.074ZM890.157 356.541C892.439 359.583 890.873 364.16 896.536 366.058C901.03 359.391 888.988 333.754 879.454 331.035C881.566 339.911 887.443 347.436 890.157 356.541ZM720.786 22.6222C718.203 27.5126 711.241 26.3504 706.329 28.0603C727.252 28.8909 747.564 25.4421 768.254 25.7111C752.892 22.9656 737.389 22.6395 720.786 22.6222ZM329.143 378.846C329.62 381.303 328.269 384.143 332.696 386.927C336.685 372.809 334.864 359.091 339.783 345.945C338.525 345.799 337.267 345.653 336.009 345.507C330.329 355.811 331.745 367.164 329.143 378.846ZM1017.25 782.46C1018.02 781.854 1019.28 781.407 1018.5 780.279C1018.04 780.237 1017.48 780.038 1017.15 780.168C1001.97 786.465 987.742 793.903 973.206 800.97C971.23 801.926 969.926 803.179 971.874 804.947C977.791 803.846 1006.95 789.437 1017.25 782.46ZM782.284 168.413C786.885 169.43 782.869 171.957 783.896 174.216C794.231 176.166 804.73 178.147 815.227 180.128C815.538 179.354 815.848 178.58 816.159 177.807C805.285 173.816 796.099 167.192 782.934 166.785C781.902 166.754 780.889 166.979 782.284 168.413ZM304.458 693.02C312.678 698.126 317.613 705.963 328.322 710.023C327.812 705.207 297.07 680.435 290.317 679.162C292.893 685.086 299.505 688.141 304.458 693.02ZM444.383 350.476C441.763 349.936 441.783 351.584 441.288 352.663C438.729 358.241 435.897 363.767 433.844 369.45C432.283 373.774 431.744 378.305 434.445 383.749C438.261 379.282 441.326 376.306 438.34 371.595C436.855 369.252 436.003 365.225 442.732 364.902C444.401 364.821 444.95 363.725 445.295 362.602C446.49 358.707 447.607 354.824 444.383 350.476ZM455.858 382.052C455.109 387.322 455.011 392.577 456.212 398.158C462.2 386.22 460.866 373.919 463.729 361.982C457.941 362.156 456.011 362.846 456.789 365.008C458.77 370.511 455.652 375.713 455.858 382.052ZM846.498 40.9079C837.198 38.9895 828.484 35.4815 818.474 35.315C830.352 41.7082 844.632 43.3802 858.592 47.4538C858.25 40.8632 851.435 42.5841 846.498 40.9079ZM126.302 613.681C123.925 611.454 121.571 609.213 119.159 607.007C117.973 605.924 116.361 605.658 114.62 606.049C113.281 606.351 112.985 607.197 112.914 608.159C112.635 611.913 122.017 621.764 127.994 623.584C128.864 620.335 129.214 617.281 126.302 613.681ZM681.488 23.6867C676.755 23.942 672.059 24.2709 668.541 27.1052C672.576 31.3199 686.258 31.8717 693.42 28.3294C692.446 23.4445 687.875 23.1734 681.488 23.6867ZM87.3404 529.109C87.0076 526.894 87.0435 524.523 81.84 522.816C83.8988 532.296 82.5867 541.128 88.9006 549.591C92.8679 546.63 92.0042 543.67 90.5759 541.512C88.1119 537.79 87.7345 533.964 87.3404 529.109ZM257.165 543.807C254.268 540.503 251.654 537.091 248.448 533.898C244.713 530.177 241.617 530.256 237.284 533.075C238.343 535.505 239.268 537.833 241.954 539.134C244.646 538.743 242.623 535.962 245.756 536.128C249.969 540.339 252.712 545.394 258.019 549.292C259.919 547.276 258.032 545.932 257.165 543.807ZM223.715 772.648C231.064 781.38 235.272 783.182 241.942 780.444C238.817 775.902 228.343 771.168 223.715 772.648ZM804.979 34.9076C798.77 33.784 792.57 32.3162 786.22 34.4328C789.407 35.7918 792.285 37.7247 796.203 36.1675C798.499 35.2544 800.429 35.9074 801.944 37.3181C805.418 40.5508 809.763 39.3913 814.195 38.4748C811.447 37.3855 808.699 36.2962 804.979 34.9076ZM341.839 338.461C344.937 333.636 346.53 328.606 345.656 323.19C340.939 327.485 337.804 332.139 338.769 337.844C338.964 338.997 338.868 340.745 341.839 338.461ZM548.925 853.355C550.913 849.488 547.771 848.525 543.71 848.6C538.212 848.703 532.727 849.171 527.237 849.481C527.224 849.866 527.212 850.252 527.2 850.637C534.132 851.594 541.063 852.557 548.925 853.355ZM910.151 322.349C911.404 315.506 903.483 312.672 899.296 308.138C900.86 312.999 903.306 317.535 905.943 322.009C906.54 323.02 907.899 323.572 910.151 322.349ZM593.294 638.421C591.246 638.706 588.901 638.64 588.373 640.725C593.732 644.853 602.494 644.488 605.353 639.944C602.021 638.123 597.957 639.24 593.294 638.421ZM597.97 742.047C598.398 741.91 598.843 741.786 599.241 741.614C599.322 741.58 599.273 741.201 599.214 741.187C590.279 739.543 581.353 739.261 572.437 741.174C580.535 743.699 588.805 742.557 597.97 742.047ZM124.243 215.145C124.519 212.851 126.143 210.487 123.39 207.306C120.093 212.2 116.076 215.941 116.858 221.427C121.444 220.457 123.391 218.652 124.243 215.145ZM130.114 642.417C131.378 645.83 135.123 646.023 139.109 646.676C139.878 641.812 135.361 640.086 132.134 637.633C129.584 638.744 130.272 640.316 130.114 642.417ZM691.319 569.052C694.053 568.396 697.574 569.136 699.984 566.129C692.97 564.307 687.273 566.165 679.71 567.104C684.082 569.767 687.395 568.478 691.319 569.052ZM1217.12 438.061C1217.76 432.255 1217.07 426.598 1213.94 421.183C1214.76 426.058 1214.28 430.919 1214.39 435.77C1214.41 436.842 1213.08 438.898 1217.12 438.061ZM250.701 554.479C252.562 556.86 250.339 560.858 257.248 562.34C255.55 556.226 251.528 551.866 248.142 546.467C245.818 550.208 248.917 551.745 250.701 554.479ZM491.291 905.692C489.489 905.52 487.485 904.887 486.355 907.254C492.513 908.135 498.148 910.481 506.325 909.442C500.884 907.419 496.8 906.236 491.291 905.692ZM138.44 125.018C139.592 122.698 143.22 121.356 143.051 118.461C139.229 122.425 132.135 124.397 129.879 130.105C134.594 129.644 135.859 127.303 138.44 125.018ZM157.175 684.178C158.91 684.405 161.629 685.774 162.088 683.889C162.787 681.013 160.499 678.659 157.016 676.719C154.97 679.313 153.717 681.488 157.175 684.178ZM1215.96 451.513C1217.67 454.938 1211.98 458.579 1216.75 462.626C1220.77 457.549 1217.56 453.005 1217.78 448.244C1215.63 448.998 1216.05 449.975 1215.96 451.513ZM758.805 19.3303C757.789 20.3427 756.148 21.6015 759.348 21.9114C762.939 22.2589 766.593 22.241 770.22 22.3828C767.108 19.8356 763.975 17.9629 758.805 19.3303ZM90.0712 562.217C90.967 563.122 90.9473 564.743 94.0835 564.497C93.8143 561.804 95.7439 558.945 92.3194 556.366C88.7756 557.698 89.0229 559.563 90.0712 562.217ZM526.262 907.729C527.879 907.488 530.162 908.589 531.009 906.27C528.261 904.983 525.868 903.174 522.192 903.648C520.675 906.318 522.81 907.055 526.262 907.729ZM506.101 -11.1259C508.051 -11.9328 510.821 -11.6378 512.445 -14.0893C507.173 -14.8769 503.227 -13.8795 499.435 -11.4317C501.535 -9.84541 503.373 -10.7618 506.101 -11.1259ZM78.8348 288.924C78.1039 290.256 77.18 291.679 79.4055 292.654C79.9977 292.913 81.5667 292.743 81.901 292.373C83.6352 290.45 85.1799 288.401 82.3858 286.27C80.5177 286.376 79.9638 287.418 78.8348 288.924ZM1043.93 340.226C1043.49 339.108 1043.75 337.566 1041.25 337.637C1039.91 342.783 1039.91 342.783 1044.56 344.484C1045.77 343.204 1044.44 342.09 1043.93 340.226ZM599.508 117.021C603.576 119.676 606.251 117.36 609.206 116.012C605.746 114.589 602.583 114.542 599.508 117.021ZM417.047 400.426C417.298 401.267 417.283 402.214 419.332 402.877C420.731 399.328 419.908 396.184 418.022 392.544C415.482 395.179 416.957 397.478 417.047 400.426Z" fill="#B9E31B"/>
</svg>
