<svg width="62" height="84" viewBox="0 0 62 84" fill="none" xmlns="http://www.w3.org/2000/svg">
<path d="M32.0787 84C31.2549 84 30.4173 83.9626 29.5667 83.8802C19.3824 82.9002 13.5809 72.0354 14.0461 62.5306C14.0961 61.5104 14.1962 60.4855 14.2925 59.4943C14.4732 57.6402 14.6437 55.889 14.5205 54.1415C14.5038 53.9131 14.4538 53.6145 14.3064 53.4919C13.8959 53.1494 12.5301 53.3197 11.5331 53.4442C10.4101 53.5837 9.24718 53.7287 8.26406 53.4667C1.30805 51.6162 0.838261 45.8141 0.461134 41.1511L0.389785 40.2835C-0.0327454 35.1581 -0.557202 28.7785 1.48318 23.7008C2.01968 22.3652 3.35399 20.7516 5.12473 20.1553C6.30614 19.7585 7.47552 19.8802 8.5059 20.5082C9.53628 21.1353 10.1098 22.3773 10.6649 23.5791C11.0031 24.312 11.5692 25.5381 11.9686 25.6523C12.0613 25.6804 12.2985 25.6252 12.6636 25.3837C14.7216 24.0256 15.7603 20.775 16.6767 17.9071C17.0325 16.7952 17.3689 15.7432 17.7543 14.8137C19.867 9.7239 22.4911 6.35065 26.5302 3.53337C33.2508 -1.15586 44.0003 -1.1802 51.5336 3.47534C57.0469 6.88322 60.0788 10.9435 60.7997 15.891C61.7198 22.1976 60.7422 26.6089 57.8948 29.0012C56.1046 30.5053 53.7352 31.1334 51.0397 30.8133C48.8956 30.5596 46.6328 29.6985 44.6749 28.4687C46.4846 32.835 48.0468 36.8578 48.6778 38.7279C49.6804 41.7024 52.6872 51.7192 49.2255 55.7326C48.3665 56.7276 46.7199 57.7918 43.7585 57.2124C43.0849 57.0805 42.161 56.8259 41.0936 56.531C37.579 55.5623 31.0372 53.7606 28.5279 55.5155C27.9127 55.9461 27.5874 56.5769 27.5031 57.5007C27.4855 57.687 27.5235 57.8058 27.6412 57.9387C28.6706 59.1022 32.9654 59.1883 34.7992 59.2257C35.3385 59.2369 35.7943 59.2463 36.1242 59.2688C39.3266 59.4747 42.1851 58.7222 45.2114 57.9228C46.8478 57.4904 48.5398 57.043 50.3272 56.7435C51.5234 56.5423 55.1576 55.9292 56.3353 59.1452C56.9357 60.7841 57.235 63.3627 56.1036 65.2318C54.7489 67.4698 52.5242 67.9471 50.2975 67.686C50.8424 68.0398 51.3149 68.5031 51.6967 69.0665C52.7595 70.6305 53.1209 72.9705 52.6613 75.3263C51.9738 78.8465 48.0987 80.2393 45.5339 81.1602L45.1512 81.2978C41.3882 82.6644 36.9721 83.9991 32.0787 84ZM13.2844 50.7664C14.2471 50.7664 15.1691 50.9395 15.8937 51.5414C16.5627 52.0973 16.9389 52.9116 17.013 53.9618C17.1511 55.9236 16.9621 57.8639 16.7795 59.7424C16.6859 60.7027 16.5887 61.6967 16.5423 62.656C16.0179 73.3748 23.0174 80.7129 29.8039 81.3662C35.1985 81.8819 39.9622 80.4985 44.3033 78.9223L44.6934 78.7819C46.9655 77.9648 49.7944 76.9493 50.2058 74.8387C50.5273 73.1876 50.3022 71.4832 49.6332 70.4967C49.2375 69.9145 48.6973 69.571 47.981 69.4437C46.7181 69.221 45.255 69.3773 43.84 69.528C43.3536 69.5804 42.8717 69.6309 42.4047 69.6674C41.9646 69.7021 41.4874 69.7461 40.9824 69.7919C36.4254 70.2131 29.5361 70.8477 26.4227 66.7219C25.3265 65.2674 24.9318 63.1203 25.4637 61.5001C25.6518 60.9264 25.9631 60.4865 26.3532 60.1495C26.1391 59.9913 25.9455 59.8163 25.7741 59.6226C25.194 58.9664 24.9299 58.1531 25.0105 57.2686C25.1644 55.5923 25.8667 54.3044 27.101 53.4404C30.5674 51.0135 37.2954 52.8686 41.7478 54.0947C42.7689 54.3755 43.6501 54.6188 44.232 54.733C46.4002 55.158 47.1072 54.3409 47.3389 54.0732C49.2514 51.8549 48.146 44.9858 46.3094 39.5422C45.5746 37.3642 43.6797 32.5626 41.6264 27.6937C41.3104 28.4602 40.8545 29.1828 40.1679 29.8043C37.8236 31.9261 33.7577 31.68 31.5412 31.344C28.3889 30.8666 25.762 28.7317 24.8475 25.9041C24.0163 23.333 24.7168 20.6804 26.7711 18.6269C29.0413 16.3572 32.92 15.9229 35.5627 16.476C35.9686 16.5612 36.3466 16.6632 36.6978 16.7783C36.0557 15.5157 35.5201 14.5807 35.1541 14.1333C34.7149 13.5951 34.7899 12.7995 35.3227 12.3559C35.8564 11.9113 36.644 11.988 37.0833 12.5262C37.9237 13.5567 39.3507 16.3721 40.9287 19.8259C42.3788 17.0329 45.3875 16.2636 47.8291 16.769C50.8359 17.3914 52.8568 19.7781 52.8559 22.7105C52.855 25.4782 51.6207 27.1864 50.0891 28.0802C50.506 28.1804 50.9202 28.2562 51.3288 28.3049C52.7215 28.4687 54.7137 28.3863 56.2936 27.0591C58.397 25.2929 59.0984 21.5584 58.3256 16.2579C57.7178 12.0985 55.0686 8.62133 50.2271 5.62808C43.5945 1.52851 33.8086 1.52009 27.9497 5.6103C24.3323 8.13275 21.9731 11.1765 20.0588 15.789C19.7132 16.6202 19.3935 17.6217 19.0553 18.6821C18.011 21.9487 16.8277 25.6504 14.0303 27.4971C13.0685 28.1317 12.1447 28.3283 11.282 28.0802C9.78554 27.6487 9.04889 26.0529 8.39934 24.6452C8.03982 23.8674 7.59319 22.8996 7.21514 22.6703C6.81948 22.4288 6.39417 22.3904 5.91512 22.5514C4.9496 22.8753 4.12121 23.8524 3.80061 24.6499C1.98447 29.1697 2.46167 34.9624 2.88235 40.0738L2.9537 40.9452C3.39105 46.3476 4.01002 49.7228 8.90156 51.0238C9.42138 51.1623 10.3396 51.0472 11.2283 50.9377C11.8945 50.8534 12.5996 50.7664 13.2844 50.7664ZM30.1727 61.6293C29.1664 61.6293 28.0174 61.7444 27.8367 62.2948C27.5633 63.1287 27.8154 64.4016 28.4121 65.1925C30.6869 68.2073 36.746 67.6467 40.7545 67.2788C41.2724 67.2302 41.7617 67.1852 42.2111 67.1506C42.6558 67.116 43.1136 67.0673 43.5769 67.0177C44.6712 66.9007 45.7915 66.7809 46.909 66.8118C45.5431 66.2923 44.3886 65.6783 43.7233 65.2946C39.9743 63.1362 35.9176 61.9232 31.6691 61.6901L31.4097 61.6752C31.115 61.6564 30.661 61.6293 30.1727 61.6293ZM41.5226 61.3953C42.6929 61.8848 43.8391 62.4529 44.9612 63.0988C46.1389 63.7764 52.1016 66.999 53.9678 63.9159C54.5599 62.9387 54.4256 61.2175 53.9882 60.0222C53.7491 59.3689 53.1932 58.8232 50.7349 59.2351C49.0587 59.5168 47.4232 59.9492 45.8415 60.3667C44.434 60.7392 43.0042 61.1173 41.5226 61.3953ZM33.3778 18.786C31.6209 18.786 29.6714 19.2821 28.5298 20.423C27.1529 21.7989 26.6896 23.4677 27.2233 25.1216C27.846 27.0478 29.6871 28.5108 31.9119 28.8477C34.8983 29.2989 37.3594 28.9544 38.4991 27.9239C39.5165 27.0039 39.7037 25.54 39.9196 23.844C39.9233 23.8131 39.9279 23.7832 39.9316 23.7513C39.7584 23.3573 39.5869 22.9689 39.4164 22.5851C38.513 20.8611 37.7124 19.5086 35.0531 18.9498C34.5425 18.8431 33.9717 18.786 33.3778 18.786ZM45.7053 26.1409C46.39 26.3487 47.0943 26.4002 47.7327 26.2906C48.7121 26.124 50.355 25.437 50.355 22.7115C50.355 20.6149 48.7242 19.5329 47.3268 19.2437C45.7451 18.917 43.7956 19.4225 43.0061 21.2897C42.7837 21.8158 42.6512 22.4223 42.5493 23.0728C42.6531 23.2366 42.7615 23.3957 42.8773 23.552C43.5843 24.502 44.573 25.3912 45.7053 26.1409Z" fill="black"/>
</svg>
